<svg width="53" height="16" viewBox="0 0 53 16" fill="none" xmlns="http://www.w3.org/2000/svg">
<mask id="mask0_6497_219" style="mask-type:luminance" maskUnits="userSpaceOnUse" x="0" y="1" width="53" height="15">
<path d="M52.5 1.07031H0V15.0703H52.5V1.07031Z" fill="white"/>
</mask>
<g mask="url(#mask0_6497_219)">
<path d="M6.639 1.18262H2.614C2.339 1.18262 2.1015 1.38261 2.064 1.6576L0.438998 11.9576C0.401498 12.1576 0.563998 12.3451 0.776498 12.3451H2.7015C2.9765 12.3451 3.214 12.1452 3.2515 11.8702L3.689 9.0951C3.7265 8.8201 3.964 8.62011 4.239 8.62011H5.5015C8.1515 8.62011 9.6765 7.34512 10.0765 4.79512C10.2515 3.68262 10.089 2.80761 9.564 2.19511C8.989 1.54511 7.9765 1.18262 6.639 1.18262ZM7.1015 4.95761C6.8765 6.39511 5.7765 6.39511 4.714 6.39511H4.1015L4.5265 3.70761C4.5515 3.54511 4.689 3.42012 4.8515 3.42012H5.1265C5.8515 3.42012 6.539 3.42011 6.889 3.83261C7.114 4.08261 7.1765 4.44511 7.1015 4.95761Z" fill="#283B82"/>
<path d="M18.6523 4.90771H16.7273C16.5648 4.90771 16.4273 5.03272 16.4023 5.19522L16.3148 5.73274L16.1773 5.53271C15.7648 4.93271 14.8273 4.72021 13.9023 4.72021C11.7773 4.72021 9.96476 6.33272 9.60226 8.59522C9.41476 9.72022 9.67726 10.7953 10.3148 11.5578C10.9023 12.2453 11.7398 12.5327 12.7398 12.5327C14.4523 12.5327 15.4023 11.4328 15.4023 11.4328L15.3148 11.9702C15.2773 12.1702 15.4398 12.3578 15.6398 12.3578H17.3773C17.6523 12.3578 17.8898 12.1578 17.9273 11.8828L18.9648 5.29524C19.0148 5.09524 18.8523 4.90771 18.6523 4.90771ZM15.9648 8.65772C15.7773 9.75772 14.9023 10.4953 13.7898 10.4953C13.2273 10.4953 12.7898 10.3202 12.5023 9.97022C12.2148 9.63272 12.1148 9.15773 12.2023 8.62023C12.3773 7.53273 13.2648 6.77023 14.3648 6.77023C14.9148 6.77023 15.3523 6.95774 15.6523 7.29524C15.9273 7.63274 16.0523 8.12022 15.9648 8.65772Z" fill="#283B82"/>
<path d="M28.9013 4.90771H26.9638C26.7763 4.90771 26.6013 4.99521 26.5013 5.15771L23.8388 9.08272L22.7138 5.30772C22.6388 5.07022 22.4263 4.90771 22.1763 4.90771H20.2763C20.0513 4.90771 19.8888 5.13271 19.9638 5.34521L22.0888 11.5952L20.0888 14.4202C19.9263 14.6452 20.0888 14.9452 20.3638 14.9452H22.3013C22.4888 14.9452 22.6513 14.8577 22.7638 14.7077L29.2013 5.42024C29.3263 5.20774 29.1638 4.90771 28.9013 4.90771Z" fill="#283B82"/>
<path d="M35.3031 1.18262H31.2781C31.0031 1.18262 30.7656 1.38261 30.7281 1.6576L29.1031 11.9576C29.0656 12.1576 29.2281 12.3451 29.4281 12.3451H31.5031C31.6906 12.3451 31.8531 12.2076 31.8906 12.0201L32.3531 9.0951C32.3906 8.8201 32.6281 8.62011 32.9031 8.62011H34.1781C36.8281 8.62011 38.3531 7.34512 38.7531 4.79512C38.9281 3.68262 38.7656 2.80761 38.2406 2.19511C37.6656 1.54511 36.6531 1.18262 35.3031 1.18262ZM35.7656 4.95761C35.5406 6.39511 34.4406 6.39511 33.3781 6.39511H32.7781L33.2031 3.70761C33.2281 3.54511 33.3656 3.42012 33.5281 3.42012H33.8031C34.5281 3.42012 35.2156 3.42011 35.5656 3.83261C35.7781 4.08261 35.8406 4.44511 35.7656 4.95761Z" fill="#469BDB"/>
<path d="M47.3124 4.90771H45.3874C45.2249 4.90771 45.0874 5.03272 45.0624 5.19522L44.9749 5.73274L44.8374 5.53271C44.4249 4.93271 43.4874 4.72021 42.5624 4.72021C40.4374 4.72021 38.6249 6.33272 38.2624 8.59522C38.0749 9.72022 38.3374 10.7953 38.9749 11.5578C39.5624 12.2453 40.3999 12.5327 41.3999 12.5327C43.1124 12.5327 44.0624 11.4328 44.0624 11.4328L43.9749 11.9702C43.9374 12.1702 44.0999 12.3578 44.3124 12.3578H46.0499C46.3249 12.3578 46.5624 12.1578 46.5999 11.8828L47.6374 5.29524C47.6749 5.09524 47.5124 4.90771 47.3124 4.90771ZM44.6249 8.65772C44.4374 9.75772 43.5624 10.4953 42.4499 10.4953C41.8874 10.4953 41.4499 10.3202 41.1624 9.97022C40.8749 9.63272 40.7749 9.15773 40.8624 8.62023C41.0374 7.53273 41.9249 6.77023 43.0249 6.77023C43.5749 6.77023 44.0124 6.95774 44.3124 7.29524C44.5999 7.63274 44.7124 8.12022 44.6249 8.65772Z" fill="#469BDB"/>
<path d="M49.5773 1.47019L47.9273 11.9702C47.8898 12.1702 48.0523 12.3577 48.2523 12.3577H49.9148C50.1898 12.3577 50.4273 12.1577 50.4648 11.8827L52.0898 1.5827C52.1273 1.38269 51.9648 1.1952 51.7648 1.1952H49.9023C49.7523 1.1827 49.6148 1.30769 49.5773 1.47019Z" fill="#469BDB"/>
</g>
</svg>
