<svg width="41" height="16" viewBox="0 0 41 16" fill="none" xmlns="http://www.w3.org/2000/svg">
<mask id="mask0_6497_230" style="mask-type:luminance" maskUnits="userSpaceOnUse" x="0" y="1" width="41" height="15">
<path d="M40.5 1.07031H0.5V15.0703H40.5V1.07031Z" fill="white"/>
</mask>
<g mask="url(#mask0_6497_230)">
<path d="M29.3 4.47002C30.2 4.47002 30.9 3.77002 30.9 2.87002C30.9 1.97002 30.2 1.27002 29.3 1.27002C28.4 1.27002 27.7 1.97002 27.7 2.87002C27.6 3.77002 28.3 4.47002 29.3 4.47002C29.3 4.57002 29.3 4.57002 29.3 4.47002ZM16.7 5.37002C16.6 5.57002 16.1 7.07002 14.8 8.67002V1.97002L11.4 2.67002V14.77H14.8V11.07C15.8 12.57 16.3 14.77 16.3 14.77H20.4C20 13.07 18.2 9.97002 18.2 9.97002C19.3 8.57002 20.1 7.07002 20.6 5.47002L16.7 5.37002ZM25.7 5.27002C22.6 5.37002 21.1 6.77002 21.1 9.47002V14.77H24.5V10.47C24.5 8.87002 24.7 8.17002 26.7 8.07002V5.37002C26.3 5.27002 25.7 5.27002 25.7 5.27002ZM5.6 6.77002C5.2 6.77002 4.2 6.67002 4.2 5.77002C4.2 4.67002 5.6 4.67002 6.1 4.67002C7 4.67002 8.2 4.97002 9.1 5.17002C9.4 5.27002 9.7 5.37002 10 5.47002V2.67002H9.9C8.9 2.27002 7.7 1.97002 5.5 1.97002C1.8 1.97002 0.5 4.17002 0.5 6.07002C0.5 7.17002 1 9.67002 5.3 9.97002C5.7 9.97002 6.6 10.07 6.6 10.97C6.6 11.67 5.8 12.17 4.5 12.17C3 12.17 1.6 11.77 0.8 11.47V14.47C2.1 14.77 3.5 14.97 5.2 14.97C8.9 14.97 10.5 12.87 10.5 10.87C10.5 8.47002 8.7 6.97002 5.6 6.77002ZM27.6 14.77H30.9V5.37002H27.6V14.77ZM37.2 2.57002V14.77H40.5V1.97002L37.2 2.57002ZM32.3 2.57002L35.6 1.97002V14.77H32.3V2.57002Z" fill="#862565"/>
</g>
</svg>
