<svg width="56" height="58" viewBox="0 0 56 58" fill="none" xmlns="http://www.w3.org/2000/svg">
<path d="M34.3023 39.2949C41.3023 39.2949 47.0773 33.5199 47.0773 26.5199C47.0773 19.5199 41.3023 13.7449 34.3023 13.7449C27.3023 13.7449 21.5273 19.5199 21.5273 26.5199C21.5273 33.5199 27.1273 39.2949 34.3023 39.2949Z" fill="#FFB709"/>
<path d="M25.7247 21.6199C26.5997 20.5699 26.9497 19.3449 26.9497 17.9449C26.9497 15.1449 25.0247 12.6949 22.3997 12.1699C22.5747 11.4699 22.7497 10.7699 22.7497 10.0699C22.7497 5.86987 19.2497 2.36987 14.8747 2.36987C10.6747 2.36987 7.17471 5.86987 7.17471 10.0699C7.17471 10.7699 7.34971 11.2949 7.34971 11.9949C4.89971 12.6949 2.97471 15.1449 2.97471 17.9449C2.97471 19.3449 3.49971 20.5699 4.19971 21.6199C2.79971 23.0199 1.39971 24.9449 1.74971 27.2199C2.09971 29.3199 11.0247 50.6699 11.0247 50.6699H18.7247C18.7247 50.6699 27.6497 29.3199 27.9997 27.2199C28.5247 24.9449 27.1247 23.0199 25.7247 21.6199Z" fill="#634C9F"/>
<path d="M14.875 11.1199V50.1449" stroke="#1D1D1B" stroke-width="1.5" stroke-miterlimit="10" stroke-linecap="round" stroke-linejoin="round"/>
<path d="M8.22656 28.095L14.8766 35.62" stroke="#1D1D1B" stroke-width="1.5" stroke-miterlimit="10" stroke-linecap="round" stroke-linejoin="round"/>
<path d="M21.7 28.095L14.875 35.62" stroke="#1D1D1B" stroke-width="1.5" stroke-miterlimit="10" stroke-linecap="round" stroke-linejoin="round"/>
<path d="M8.22656 17.0699L15.0516 24.7699" stroke="#1D1D1B" stroke-width="1.5" stroke-miterlimit="10" stroke-linecap="round" stroke-linejoin="round"/>
<path d="M21.7 17.0699L14.875 24.7699" stroke="#1D1D1B" stroke-width="1.5" stroke-miterlimit="10" stroke-linecap="round" stroke-linejoin="round"/>
<path d="M42.3477 38.5949C42.6977 39.8199 42.8727 41.0449 43.0477 42.0949H54.2477L49.6977 28.2699L40.5977 35.0949C41.2977 36.1449 41.8227 37.3699 42.3477 38.5949Z" fill="#634C9F"/>
<path d="M2.45039 51.7199C1.75039 49.7949 2.45039 47.6949 3.85039 46.8199L29.9254 31.4199C34.4754 29.1449 40.2504 32.4699 42.3504 38.5949C44.2754 44.7199 41.6504 50.8449 36.5754 51.7199L6.4754 54.8699C4.9004 55.0449 3.15039 53.6449 2.45039 51.7199Z" stroke="#1D1D1B" stroke-width="1.5" stroke-miterlimit="10" stroke-linecap="round" stroke-linejoin="round"/>
<path d="M29.5742 31.7699C29.7492 32.1199 33.4242 44.1949 33.4242 44.1949" stroke="#1D1D1B" stroke-width="1.5" stroke-miterlimit="10" stroke-linecap="round" stroke-linejoin="round"/>
<path d="M25.375 45.595C25.55 45.945 27.65 52.595 27.65 52.595" stroke="#1D1D1B" stroke-width="1.5" stroke-miterlimit="10" stroke-linecap="round" stroke-linejoin="round"/>
<path d="M17.8477 38.9449C18.0227 39.2949 20.1227 45.9449 20.1227 45.9449" stroke="#1D1D1B" stroke-width="1.5" stroke-miterlimit="10" stroke-linecap="round" stroke-linejoin="round"/>
<path d="M7.875 49.2699L9.45 54.3449" stroke="#1D1D1B" stroke-width="1.5" stroke-miterlimit="10" stroke-linecap="round" stroke-linejoin="round"/>
<path d="M38.8492 8.66992L36.5742 17.2449" stroke="#1D1D1B" stroke-width="1.5" stroke-miterlimit="10" stroke-linecap="round" stroke-linejoin="round"/>
<path d="M39.9008 17.0699C39.3758 17.4199 38.6758 17.4199 37.9758 17.4199C36.5758 17.4199 35.1758 16.7199 34.3008 15.6699" stroke="#1D1D1B" stroke-width="1.5" stroke-miterlimit="10" stroke-linecap="round" stroke-linejoin="round"/>
</svg>
