<svg width="22" height="19" viewBox="0 0 22 19" fill="none" xmlns="http://www.w3.org/2000/svg">
<g clip-path="url(#clip0_6314_4118)">
<path d="M8.83228 2.22802H5.08828C4.70428 2.22802 4.38328 2.34802 4.12528 2.58802C3.86728 2.82802 3.73828 3.13402 3.73828 3.50602V7.25002C3.73828 7.62202 3.87028 7.94002 4.13428 8.20402C4.39828 8.46802 4.71628 8.60002 5.08828 8.60002H8.83228C9.21628 8.60002 9.53728 8.46802 9.79528 8.20402C10.0533 7.94002 10.1823 7.62202 10.1823 7.25002V3.50602C10.1823 3.13402 10.0533 2.82802 9.79528 2.58802C9.53728 2.34802 9.21628 2.22802 8.83228 2.22802ZM8.97628 7.25002C8.97628 7.28602 8.96128 7.31902 8.93128 7.34902C8.90128 7.37902 8.86828 7.39402 8.83228 7.39402H5.08828C5.05228 7.43002 5.01628 7.42702 4.98028 7.38502C4.94428 7.34302 4.92628 7.29802 4.92628 7.25002V3.50602C4.92628 3.45802 4.94428 3.41902 4.98028 3.38902C5.01628 3.35902 5.05228 3.34402 5.08828 3.34402H8.83228C8.86828 3.34402 8.90128 3.35902 8.93128 3.38902C8.96128 3.41902 8.97628 3.45802 8.97628 3.50602V7.25002ZM17.0763 2.22802H13.3323C12.9603 2.22802 12.6423 2.35702 12.3783 2.61502C12.1143 2.87302 11.9823 3.19402 11.9823 3.57802V7.32202C11.9823 7.69402 12.1143 8.01202 12.3783 8.27602C12.6423 8.54002 12.9603 8.67202 13.3323 8.67202H17.0763C17.4603 8.67202 17.7813 8.54002 18.0393 8.27602C18.2973 8.01202 18.4263 7.69402 18.4263 7.32202V3.50602C18.4263 3.13402 18.2973 2.82802 18.0393 2.58802C17.7813 2.34802 17.4603 2.22802 17.0763 2.22802ZM17.2383 7.25002C17.2383 7.28602 17.2233 7.31902 17.1933 7.34902C17.1633 7.37902 17.1243 7.39402 17.0763 7.39402H13.3323C13.2963 7.39402 13.2633 7.37902 13.2333 7.34902C13.2033 7.31902 13.1883 7.28602 13.1883 7.25002V3.50602C13.1883 3.45802 13.2033 3.41902 13.2333 3.38902C13.2633 3.35902 13.2963 3.34402 13.3323 3.34402H17.0763C17.1243 3.34402 17.1633 3.35902 17.1933 3.38902C17.2233 3.41902 17.2383 3.45802 17.2383 3.50602V7.25002ZM17.0763 10.472H13.3323C12.9603 10.472 12.6423 10.601 12.3783 10.859C12.1143 11.117 11.9823 11.438 11.9823 11.822V15.566C11.9823 15.95 12.1143 16.274 12.3783 16.538C12.6423 16.802 12.9603 16.934 13.3323 16.934H17.0763C17.4483 16.934 17.7663 16.802 18.0303 16.538C18.2943 16.274 18.4263 15.95 18.4263 15.566V11.822C18.4263 11.414 18.2973 11.087 18.0393 10.841C17.7813 10.595 17.4603 10.472 17.0763 10.472ZM17.2383 15.494C17.2383 15.53 17.2233 15.566 17.1933 15.602C17.1633 15.638 17.1243 15.656 17.0763 15.656H13.3323C13.2963 15.656 13.2633 15.638 13.2333 15.602C13.2033 15.566 13.1883 15.53 13.1883 15.494V11.75C13.1883 11.714 13.2033 11.681 13.2333 11.651C13.2633 11.621 13.2963 11.606 13.3323 11.606H17.0763C17.1243 11.606 17.1633 11.621 17.1933 11.651C17.2233 11.681 17.2383 11.714 17.2383 11.75V15.494ZM8.83228 10.472H5.08828C4.71628 10.472 4.39828 10.601 4.13428 10.859C3.87028 11.117 3.73828 11.438 3.73828 11.822V15.566C3.73828 15.95 3.87028 16.274 4.13428 16.538C4.39828 16.802 4.71628 16.934 5.08828 16.934H8.83228C9.20428 16.934 9.52228 16.802 9.78628 16.538C10.0503 16.274 10.1823 15.95 10.1823 15.566V11.822C10.1823 11.414 10.0533 11.087 9.79528 10.841C9.53728 10.595 9.21628 10.472 8.83228 10.472ZM8.97628 15.494C8.97628 15.53 8.96128 15.566 8.93128 15.602C8.90128 15.638 8.86828 15.656 8.83228 15.656H5.08828C5.05228 15.656 5.01628 15.638 4.98028 15.602C4.94428 15.566 4.92628 15.53 4.92628 15.494V11.75C4.92628 11.714 4.94428 11.681 4.98028 11.651C5.01628 11.621 5.05228 11.606 5.08828 11.606H8.83228C8.86828 11.606 8.90128 11.621 8.93128 11.651C8.96128 11.681 8.97628 11.714 8.97628 11.75V15.494Z" fill="#030712"/>
</g>
<defs>
<clipPath id="clip0_6314_4118">
<rect width="18" height="18" fill="white" transform="matrix(1 0 0 -1 3.58984 18.5)"/>
</clipPath>
</defs>
</svg>
