<svg width="20" height="21" viewBox="0 0 20 21" fill="none" xmlns="http://www.w3.org/2000/svg">
<g clip-path="url(#clip0_6314_4130)">
<path d="M14.5793 5.12002C13.3393 4.92002 12.1193 5.18002 11.0793 5.86002C11.3793 5.18002 11.8793 4.56002 12.5393 4.02002C13.3193 3.36002 14.0593 3.06002 14.0593 3.06002C14.3593 2.94002 14.5193 2.60002 14.3993 2.30002C14.2793 1.98002 13.9393 1.84002 13.6393 1.96002C13.5393 2.00002 12.0593 2.58002 10.8993 3.94002C10.8593 3.74002 10.7793 3.52002 10.6993 3.30002C10.0193 1.50002 8.09928 0.600022 8.01928 0.560022C7.87928 0.480022 7.71928 0.480022 7.55928 0.540022C7.39928 0.600022 7.27928 0.720022 7.21928 0.860022C7.19928 0.940022 6.37928 2.88002 7.05928 4.70002C7.13928 4.86002 7.19928 5.02002 7.27928 5.16002C6.67928 5.04002 6.05928 5.02002 5.41928 5.12002C2.65928 5.56002 0.779276 8.22002 1.19928 11.04C1.51928 13.06 1.95928 14.8 2.53928 16.18C3.19928 17.78 4.01928 18.94 4.99928 19.66C5.77928 20.22 6.63928 20.5 7.57928 20.5C7.83928 20.5 8.09928 20.48 8.37928 20.44C8.99928 20.34 9.53928 20.1 9.99928 19.76C10.4593 20.1 10.9993 20.34 11.6393 20.44C12.8793 20.64 14.0193 20.38 14.9993 19.66C15.9793 18.94 16.7993 17.78 17.4593 16.18C18.0393 14.8 18.4993 13.06 18.7993 11.04C19.2393 8.22002 17.3393 5.56002 14.5793 5.12002ZM8.11928 2.00002C8.61928 2.34002 9.27928 2.92002 9.59928 3.72002C9.89928 4.54002 9.79928 5.42002 9.65928 6.00002C9.15928 5.66002 8.49928 5.08002 8.17928 4.26002C7.87928 3.46002 7.97928 2.58002 8.11928 2.00002ZM17.6193 10.86C17.0193 14.84 15.8593 17.54 14.2993 18.68C13.5593 19.22 12.7593 19.4 11.8193 19.26C11.2393 19.16 10.7993 18.94 10.4393 18.54C10.3193 18.42 10.1593 18.36 9.99928 18.36C9.83928 18.36 9.67928 18.42 9.55928 18.54C9.19928 18.94 8.75928 19.16 8.17928 19.26C7.23928 19.4 6.43928 19.22 5.69928 18.68C4.13928 17.54 2.97928 14.84 2.37928 10.86C2.03928 8.68002 3.49928 6.64002 5.61928 6.28002C5.81928 6.26002 6.01928 6.24002 6.21928 6.24002C7.03928 6.24002 7.83928 6.52002 8.51928 7.02002C9.39928 7.70002 10.6193 7.70002 11.4793 7.02002C12.3193 6.38002 13.3593 6.12002 14.3793 6.28002C16.4993 6.64002 17.9593 8.68002 17.6193 10.86Z" fill="black"/>
</g>
<defs>
<clipPath id="clip0_6314_4130">
<rect width="20" height="20" fill="white" transform="translate(0 0.5)"/>
</clipPath>
</defs>
</svg>
