<svg width="13" height="7" viewBox="0 0 13 7" fill="none" xmlns="http://www.w3.org/2000/svg">
<path d="M12.8643 3.40804C12.8643 3.38004 12.8526 3.35438 12.8293 3.33104C12.806 3.30771 12.7803 3.29604 12.7523 3.29604L10.4143 0.958045C10.321 0.874045 10.2136 0.832045 10.0923 0.832045C9.97098 0.832045 9.86365 0.874045 9.77031 0.958045C9.67698 1.04204 9.63265 1.14938 9.63731 1.28004C9.64198 1.41071 9.68631 1.51804 9.77031 1.60204L11.3523 3.18404H0.782313C0.660979 3.18404 0.553646 3.22604 0.460313 3.31004C0.366979 3.39404 0.320312 3.50838 0.320312 3.65304C0.320312 3.79771 0.362313 3.90971 0.446313 3.98904C0.530313 4.06838 0.642312 4.10804 0.782313 4.10804H11.4083L9.82631 5.69004C9.74231 5.77404 9.70031 5.87904 9.70031 6.00504C9.70031 6.13104 9.74231 6.24071 9.82631 6.33404C9.85431 6.36204 9.89631 6.38771 9.95231 6.41104C10.0083 6.43438 10.0643 6.44604 10.1203 6.44604C10.1763 6.44604 10.2323 6.43438 10.2883 6.41104C10.3443 6.38771 10.3863 6.36204 10.4143 6.33404L12.7523 3.99604C12.771 3.97738 12.7896 3.95404 12.8083 3.92604C12.827 3.89804 12.8456 3.88404 12.8643 3.88404C12.8923 3.76271 12.9063 3.66938 12.9063 3.60404C12.9063 3.53871 12.8923 3.47338 12.8643 3.40804Z" fill="#212529"/>
</svg>
