<svg width="89" height="25" viewBox="0 0 89 25" fill="none" xmlns="http://www.w3.org/2000/svg">
<path d="M0 12.5901C0 5.96267 5.37258 0.590088 12 0.590088H76.72C83.3474 0.590088 88.72 5.96267 88.72 12.5901C88.72 19.2175 83.3474 24.5901 76.72 24.5901H12C5.37258 24.5901 0 19.2175 0 12.5901Z" fill="url(#paint0_linear_6314_1774)"/>
<g clip-path="url(#clip0_6314_1774)">
<path d="M18.5017 14.9626L17.1689 14.2047L18.3188 13.5253C18.5278 13.3946 18.6062 13.1202 18.4756 12.9111C18.358 12.7021 18.0836 12.6237 17.8614 12.7543L16.2804 13.6821L13.8892 12.3101L16.2804 10.925L17.8614 11.8658C17.9398 11.905 18.0182 11.9311 18.0966 11.9311C18.2404 11.9311 18.3972 11.8527 18.4756 11.709C18.6062 11.4999 18.5278 11.2255 18.3188 11.0949L17.1689 10.4154L18.5017 9.65753C18.7108 9.52687 18.7761 9.25247 18.6585 9.0434C18.5409 8.83433 18.2665 8.75593 18.0444 8.87353L16.7246 9.64447L16.7116 8.31167C16.7116 8.0634 16.5025 7.8674 16.2673 7.8674C16.019 7.8674 15.823 8.07647 15.823 8.32473L15.8361 10.1541L13.4449 11.5391V8.78207L15.0521 7.88047C15.2612 7.7498 15.3396 7.4754 15.222 7.26633C15.0913 7.05727 14.83 6.97887 14.6078 7.09647L13.4449 7.7498V6.221C13.4449 5.97273 13.2489 5.77673 13.0006 5.77673C12.7524 5.77673 12.5564 5.97273 12.5564 6.221V7.7498L11.3934 7.09647C11.1844 6.97887 10.91 7.05727 10.7793 7.26633C10.6617 7.4754 10.7401 7.7498 10.9492 7.88047L12.5564 8.78207V11.5391L10.1652 10.1541L10.1782 8.32473C10.1913 8.07647 9.98222 7.8674 9.74702 7.8674C9.73396 7.8674 9.73396 7.8674 9.73396 7.8674C9.49876 7.8674 9.28969 8.0634 9.28969 8.31167L9.27662 9.64447L7.95689 8.87353C7.73476 8.75593 7.46036 8.83433 7.34276 9.0434C7.22516 9.25247 7.29049 9.52687 7.51262 9.65753L8.83236 10.4154L7.68249 11.0949C7.47342 11.2255 7.39502 11.4999 7.52569 11.709C7.60409 11.8527 7.76089 11.9311 7.90462 11.9311C7.98302 11.9311 8.06142 11.905 8.13982 11.8658L9.72089 10.925L12.1121 12.3101L9.72089 13.6951L8.13982 12.7543C7.91769 12.6237 7.65636 12.7021 7.52569 12.9111C7.39502 13.1202 7.47342 13.3946 7.68249 13.5253L8.83236 14.2047L7.51262 14.9626C7.29049 15.0933 7.22516 15.3677 7.34276 15.5768C7.42116 15.7205 7.57796 15.7989 7.73476 15.7989C7.80009 15.7989 7.87849 15.7858 7.95689 15.7336L9.27662 14.9757L9.28969 16.3085C9.28969 16.5568 9.49876 16.7528 9.73396 16.7528C9.73396 16.7528 9.73396 16.7528 9.74702 16.7528C9.98222 16.7528 10.1913 16.5437 10.1782 16.2954L10.1652 14.4661L12.5564 13.081V15.8381L10.9492 16.7397C10.7401 16.8704 10.6617 17.1448 10.7793 17.3538C10.8708 17.4976 11.0145 17.576 11.1713 17.576C11.2497 17.576 11.3281 17.5629 11.3934 17.5237L12.5564 16.8704V18.3992C12.5564 18.6474 12.7524 18.8434 13.0006 18.8434C13.2489 18.8434 13.4449 18.6474 13.4449 18.3992V16.8704L14.6078 17.5237C14.6732 17.5629 14.7516 17.576 14.83 17.576C14.9868 17.576 15.1305 17.4976 15.222 17.3538C15.3396 17.1448 15.2612 16.8704 15.0521 16.7397L13.4449 15.8381V13.081L15.8361 14.4661L15.823 16.2954C15.823 16.5437 16.019 16.7528 16.2542 16.7528C16.2673 16.7528 16.2673 16.7528 16.2673 16.7528C16.5156 16.7528 16.7116 16.5568 16.7116 16.3085L16.7246 14.9757L18.0444 15.7336C18.1228 15.7858 18.2012 15.7989 18.2665 15.7989C18.4233 15.7989 18.5801 15.7205 18.6585 15.5768C18.7761 15.3677 18.7108 15.0933 18.5017 14.9626Z" fill="#0891B2"/>
</g>
<path d="M32.1736 11.9523H30.398C30.3743 11.77 30.3258 11.6055 30.2524 11.4587C30.179 11.3119 30.082 11.1864 29.9612 11.0823C29.8405 10.9781 29.6973 10.8988 29.5315 10.8443C29.3682 10.7875 29.1871 10.7591 28.9882 10.7591C28.6355 10.7591 28.3313 10.8455 28.0756 11.0184C27.8223 11.1912 27.6269 11.4409 27.4896 11.7676C27.3547 12.0943 27.2872 12.4897 27.2872 12.9537C27.2872 13.4367 27.3559 13.8415 27.4932 14.1682C27.6329 14.4925 27.8282 14.7376 28.0791 14.9033C28.3324 15.0667 28.6319 15.1483 28.9776 15.1483C29.1717 15.1483 29.3481 15.1235 29.5067 15.0738C29.6677 15.024 29.8085 14.9518 29.9293 14.8571C30.0524 14.7601 30.153 14.6429 30.2311 14.5056C30.3116 14.3659 30.3672 14.2085 30.398 14.0333L32.1736 14.0439C32.1428 14.3659 32.0493 14.6831 31.893 14.9956C31.7392 15.3081 31.5273 15.5934 31.2574 15.8515C30.9875 16.1071 30.6584 16.3107 30.2702 16.4622C29.8843 16.6138 29.4416 16.6895 28.942 16.6895C28.2839 16.6895 27.6944 16.5451 27.1736 16.2563C26.6551 15.9651 26.2456 15.5413 25.9449 14.985C25.6442 14.4286 25.4939 13.7515 25.4939 12.9537C25.4939 12.1535 25.6466 11.4753 25.952 10.9189C26.2574 10.3626 26.6705 9.93999 27.1913 9.65117C27.7122 9.36234 28.2957 9.21793 28.942 9.21793C29.3824 9.21793 29.7896 9.27948 30.1636 9.40259C30.5377 9.52333 30.8668 9.70088 31.1509 9.93526C31.4349 10.1673 31.6658 10.4525 31.8433 10.7911C32.0209 11.1296 32.131 11.5167 32.1736 11.9523ZM39.7238 12.9537C39.7238 13.7539 39.5699 14.4322 39.2621 14.9885C38.9544 15.5449 38.5377 15.9675 38.0121 16.2563C37.4889 16.5451 36.9018 16.6895 36.2508 16.6895C35.5974 16.6895 35.0091 16.5439 34.4859 16.2527C33.9627 15.9615 33.5472 15.539 33.2394 14.985C32.934 14.4286 32.7813 13.7515 32.7813 12.9537C32.7813 12.1535 32.934 11.4753 33.2394 10.9189C33.5472 10.3626 33.9627 9.93999 34.4859 9.65117C35.0091 9.36234 35.5974 9.21793 36.2508 9.21793C36.9018 9.21793 37.4889 9.36234 38.0121 9.65117C38.5377 9.93999 38.9544 10.3626 39.2621 10.9189C39.5699 11.4753 39.7238 12.1535 39.7238 12.9537ZM37.9269 12.9537C37.9269 12.4802 37.8594 12.0801 37.7245 11.7534C37.5919 11.4267 37.4002 11.1793 37.1492 11.0113C36.9006 10.8432 36.6012 10.7591 36.2508 10.7591C35.9028 10.7591 35.6033 10.8432 35.3523 11.0113C35.1014 11.1793 34.9084 11.4267 34.7735 11.7534C34.6409 12.0801 34.5746 12.4802 34.5746 12.9537C34.5746 13.4272 34.6409 13.8273 34.7735 14.154C34.9084 14.4807 35.1014 14.7281 35.3523 14.8962C35.6033 15.0643 35.9028 15.1483 36.2508 15.1483C36.6012 15.1483 36.9006 15.0643 37.1492 14.8962C37.4002 14.7281 37.5919 14.4807 37.7245 14.154C37.8594 13.8273 37.9269 13.4272 37.9269 12.9537ZM40.4301 16.5901V9.31736H42.1879V15.1625H45.2134V16.5901H40.4301ZM48.4916 16.5901H45.8034V9.31736H48.4881C49.2291 9.31736 49.8671 9.46296 50.4021 9.75415C50.9396 10.043 51.3539 10.4596 51.645 11.0042C51.9362 11.5463 52.0818 12.195 52.0818 12.9502C52.0818 13.7077 51.9362 14.3588 51.645 14.9033C51.3562 15.4478 50.9431 15.8657 50.4057 16.1568C49.8683 16.4457 49.2303 16.5901 48.4916 16.5901ZM47.5612 15.0915H48.4242C48.8314 15.0915 49.1758 15.0229 49.4575 14.8855C49.7416 14.7459 49.9559 14.5198 50.1003 14.2073C50.2471 13.8924 50.3205 13.4734 50.3205 12.9502C50.3205 12.427 50.2471 12.0103 50.1003 11.7002C49.9535 11.3877 49.7369 11.1628 49.4504 11.0255C49.1664 10.8858 48.816 10.8159 48.3993 10.8159H47.5612V15.0915ZM58.5477 11.4978C58.524 11.2373 58.4186 11.0349 58.2316 10.8905C58.0469 10.7437 57.783 10.6703 57.4397 10.6703C57.2124 10.6703 57.023 10.6999 56.8715 10.7591C56.72 10.8183 56.6064 10.9 56.5306 11.0042C56.4549 11.1059 56.4158 11.2231 56.4134 11.3557C56.4087 11.4646 56.43 11.5605 56.4773 11.6434C56.5271 11.7262 56.5981 11.7996 56.6904 11.8635C56.7851 11.9251 56.8987 11.9795 57.0313 12.0269C57.1639 12.0742 57.313 12.1157 57.4788 12.1512L58.1038 12.2932C58.4636 12.3713 58.7808 12.4755 59.0555 12.6057C59.3325 12.7359 59.5645 12.891 59.7515 13.0709C59.9409 13.2508 60.0841 13.458 60.1812 13.6924C60.2782 13.9267 60.328 14.1895 60.3303 14.4807C60.328 14.94 60.212 15.3342 59.9823 15.6632C59.7527 15.9923 59.4224 16.2444 58.9916 16.4196C58.563 16.5948 58.0458 16.6824 57.4397 16.6824C56.8313 16.6824 56.301 16.5913 55.8488 16.409C55.3966 16.2267 55.0451 15.9497 54.7941 15.578C54.5432 15.2063 54.4141 14.7364 54.407 14.1682H56.0903C56.1045 14.4026 56.1672 14.5979 56.2785 14.7542C56.3898 14.9104 56.5424 15.0288 56.7366 15.1093C56.9331 15.1898 57.1603 15.23 57.4184 15.23C57.6551 15.23 57.8564 15.198 58.0221 15.1341C58.1902 15.0702 58.3192 14.9814 58.4092 14.8678C58.4991 14.7542 58.5453 14.6239 58.5477 14.4772C58.5453 14.3399 58.5027 14.2227 58.4198 14.1256C58.337 14.0262 58.2091 13.9409 58.0363 13.8699C57.8658 13.7965 57.648 13.7291 57.3829 13.6675L56.6229 13.4899C55.9932 13.3455 55.4972 13.1123 55.135 12.7904C54.7728 12.466 54.5929 12.0281 54.5952 11.4765C54.5929 11.0266 54.7136 10.6325 54.9575 10.2939C55.2013 9.95538 55.5387 9.69141 55.9695 9.50202C56.4004 9.31263 56.8916 9.21793 57.4433 9.21793C58.0067 9.21793 58.4956 9.31381 58.9099 9.50557C59.3265 9.69496 59.6497 9.9613 59.8793 10.3046C60.109 10.6479 60.2262 11.0456 60.2309 11.4978H58.5477ZM62.2467 16.5901H60.3575L62.8113 9.31736H65.1515L67.6053 16.5901H65.7161L64.008 11.1497H63.9512L62.2467 16.5901ZM61.9945 13.7279H65.9434V15.0631H61.9945V13.7279ZM68.0683 16.5901V9.31736H69.8262V15.1625H72.8517V16.5901H68.0683ZM73.4417 16.5901V9.31736H78.5127V10.7449H75.1995V12.2364H78.2535V13.6675H75.1995V15.1625H78.5127V16.5901H73.4417Z" fill="#0891B2"/>
<defs>
<linearGradient id="paint0_linear_6314_1774" x1="0" y1="12.5901" x2="88.72" y2="12.5901" gradientUnits="userSpaceOnUse">
<stop stop-color="#A5EFFF"/>
<stop offset="0.5" stop-color="#E7F8FD"/>
</linearGradient>
<clipPath id="clip0_6314_1774">
<rect width="14" height="14" fill="white" transform="translate(6 5.59009)"/>
</clipPath>
</defs>
</svg>
