<svg width="20" height="21" viewBox="0 0 20 21" fill="none" xmlns="http://www.w3.org/2000/svg">
<g clip-path="url(#clip0_6314_4170)">
<g clip-path="url(#clip1_6314_4170)">
<g clip-path="url(#clip2_6314_4170)">
<path d="M15.1073 7.59833H1.43816C1.04082 7.59833 0.71875 7.9204 0.71875 8.31774V12.946C0.71875 17.1115 4.1075 20.5 8.27273 20.5C12.438 20.5 15.8267 17.1115 15.8267 12.9461V8.31774C15.8267 7.9204 15.5046 7.59833 15.1073 7.59833ZM14.3878 12.9461C14.3878 16.318 11.6446 19.0612 8.2727 19.0612C4.90074 19.0612 2.15762 16.318 2.15762 12.9461V9.0372H14.3879L14.3878 12.9461Z" fill="black"/>
<path d="M17.0512 10.548H15.1085V11.9868H17.0512C17.7793 11.9868 18.3941 12.6017 18.3941 13.3298C18.3941 14.0578 17.779 14.6727 17.0512 14.6727H14.6289V16.1116H17.0512C18.585 16.1116 19.833 14.8638 19.833 13.3298C19.833 11.7957 18.585 10.548 17.0512 10.548Z" fill="black"/>
<path d="M8.2741 0.5C7.87676 0.5 7.55469 0.82207 7.55469 1.21941V4.64867C7.55469 5.04602 7.87676 5.36809 8.2741 5.36809C8.67145 5.36809 8.99352 5.04602 8.99352 4.64867V1.21941C8.99352 0.82207 8.67145 0.5 8.2741 0.5Z" fill="black"/>
<path d="M11.7038 1.65112C11.3064 1.65112 10.9844 1.97319 10.9844 2.37054V5.79979C10.9844 6.19714 11.3064 6.51921 11.7038 6.51921C12.1011 6.51921 12.4232 6.19714 12.4232 5.79979V2.37054C12.4232 1.97315 12.1012 1.65112 11.7038 1.65112Z" fill="black"/>
<path d="M4.84441 1.65112C4.44707 1.65112 4.125 1.97319 4.125 2.37054V5.79979C4.125 6.19714 4.44707 6.51921 4.84441 6.51921C5.24176 6.51921 5.56383 6.19714 5.56383 5.79979V2.37054C5.56383 1.97315 5.24176 1.65112 4.84441 1.65112Z" fill="black"/>
<path d="M15.4677 19.0612H0.887383C0.490039 19.0612 0.167969 19.3832 0.167969 19.7806C0.167969 20.1779 0.490039 20.5 0.887383 20.5H15.4677C15.8651 20.5 16.1871 20.1779 16.1871 19.7806C16.1871 19.3832 15.8651 19.0612 15.4677 19.0612Z" fill="black"/>
</g>
</g>
</g>
<defs>
<clipPath id="clip0_6314_4170">
<rect width="20" height="20" fill="white" transform="translate(0 0.5)"/>
</clipPath>
<clipPath id="clip1_6314_4170">
<rect width="20" height="20" fill="white" transform="translate(0 0.5)"/>
</clipPath>
<clipPath id="clip2_6314_4170">
<rect width="20" height="20" fill="white" transform="translate(0 0.5)"/>
</clipPath>
</defs>
</svg>
