<svg width="26" height="21" viewBox="0 0 26 21" fill="none" xmlns="http://www.w3.org/2000/svg">
<path d="M22.0842 0.165468H3.43616C2.85749 0.165468 2.31616 0.305468 1.81216 0.585468C1.30816 0.865469 0.906823 1.24813 0.608156 1.73347C0.30949 2.2188 0.160156 2.7508 0.160156 3.32947V17.3295C0.160156 17.9081 0.304823 18.4495 0.594156 18.9535C0.88349 19.4575 1.27549 19.8588 1.77016 20.1575C2.26482 20.4561 2.82016 20.6055 3.43616 20.6055H22.0842C22.6628 20.6055 23.2042 20.4608 23.7082 20.1715C24.2122 19.8821 24.6135 19.4901 24.9122 18.9955C25.2108 18.5008 25.3602 17.9455 25.3602 17.3295V3.32947C25.3602 2.7508 25.2108 2.2188 24.9122 1.73347C24.6135 1.24813 24.2122 0.865469 23.7082 0.585468C23.2042 0.305468 22.6628 0.165468 22.0842 0.165468ZM3.43616 1.92947H22.0842C22.4948 1.92947 22.8308 2.06947 23.0922 2.34947C23.3535 2.62947 23.4842 2.95613 23.4842 3.32947V4.02947L13.4602 10.4415C13.2175 10.5535 12.9655 10.6095 12.7042 10.6095C12.4428 10.6095 12.1908 10.5535 11.9482 10.4415L2.03616 4.02947V3.32947C2.03616 2.9188 2.16682 2.5828 2.42816 2.32147C2.68949 2.06013 3.02549 1.92947 3.43616 1.92947ZM22.0842 18.8415H3.43616C3.04416 18.8415 2.71282 18.6968 2.44216 18.4075C2.17149 18.1181 2.03616 17.7961 2.03616 17.4415V6.12947L11.1362 11.9535C11.5282 12.2708 12.0695 12.4295 12.7602 12.4295C13.4508 12.4295 13.9922 12.2708 14.3842 11.9535L23.4842 6.12947V17.3295C23.4842 17.7401 23.3535 18.0948 23.0922 18.3935C22.8308 18.6921 22.4948 18.8415 22.0842 18.8415Z" fill="#9CA3AF"/>
</svg>
