<svg width="24" height="21" viewBox="0 0 24 21" fill="none" xmlns="http://www.w3.org/2000/svg">
<path d="M6.66016 2.40801C5.88016 2.40801 5.15649 2.60301 4.48916 2.99301C3.82182 3.38301 3.29316 3.91168 2.90316 4.57901C2.51316 5.24634 2.31816 5.97001 2.31816 6.75001C2.31816 8.53534 2.82949 10.234 3.85216 11.846C4.68416 13.198 5.84549 14.4633 7.33616 15.642C8.67082 16.734 10.2048 17.696 11.9382 18.528L12.0682 18.58C13.8535 17.7307 15.4482 16.7427 16.8522 15.616L16.8002 15.642C18.2908 14.4633 19.4522 13.198 20.2842 11.846C21.3068 10.234 21.8182 8.53534 21.8182 6.75001C21.8182 5.97001 21.6232 5.24634 21.2332 4.57901C20.8432 3.91168 20.3145 3.38301 19.6472 2.99301C18.9798 2.60301 18.2562 2.40801 17.4762 2.40801C16.7828 2.40801 16.1285 2.55968 15.5132 2.86301C14.8978 3.16634 14.3778 3.58234 13.9532 4.11101C13.5285 4.63968 13.2555 5.23334 13.1342 5.89201C13.0822 6.13468 12.9565 6.33834 12.7572 6.50301C12.5578 6.66768 12.3282 6.75001 12.0682 6.75001C11.8082 6.75001 11.5785 6.66768 11.3792 6.50301C11.1798 6.33834 11.0542 6.13468 11.0022 5.89201C10.8808 5.23334 10.6078 4.63968 10.1832 4.11101C9.75849 3.58234 9.23849 3.16634 8.62316 2.86301C8.00782 2.55968 7.35349 2.40801 6.66016 2.40801ZM12.0682 20.842C11.9122 20.8247 11.7562 20.79 11.6002 20.738C11.5135 20.7033 11.3662 20.634 11.1582 20.53C9.25149 19.6287 7.50949 18.5453 5.93216 17.28L5.98416 17.332C4.30282 16.0147 2.97682 14.576 2.00616 13.016C0.77549 11.04 0.160156 8.95134 0.160156 6.75001C0.160156 5.57134 0.45049 4.48368 1.03116 3.48701C1.61182 2.49034 2.40049 1.70168 3.39716 1.12101C4.39382 0.540344 5.48149 0.25001 6.66016 0.25001C7.75216 0.25001 8.77049 0.497009 9.71516 0.991011C10.6598 1.48501 11.4442 2.15668 12.0682 3.00601V3.03201C12.6922 2.16534 13.4765 1.48501 14.4212 0.991011C15.3658 0.497009 16.3842 0.25001 17.4762 0.25001C18.6548 0.25001 19.7425 0.540344 20.7392 1.12101C21.7358 1.70168 22.5245 2.49034 23.1052 3.48701C23.6858 4.48368 23.9762 5.57134 23.9762 6.75001C23.9762 8.95134 23.3608 11.04 22.1302 13.016C21.1595 14.576 19.8335 16.0147 18.1522 17.332C16.6095 18.5453 14.9368 19.594 13.1342 20.478L12.9782 20.53C12.5622 20.738 12.2588 20.842 12.0682 20.842Z" fill="#030712"/>
</svg>
