<svg width="58" height="58" viewBox="0 0 58 58" fill="none" xmlns="http://www.w3.org/2000/svg">
<mask id="mask0_6314_2840" style="mask-type:luminance" maskUnits="userSpaceOnUse" x="1" y="0" width="56" height="57">
<path d="M57 0.619873H1V56.6199H57V0.619873Z" fill="white"/>
</mask>
<g mask="url(#mask0_6314_2840)">
<mask id="mask1_6314_2840" style="mask-type:luminance" maskUnits="userSpaceOnUse" x="1" y="0" width="56" height="57">
<path d="M57 0.619873H1V56.6199H57V0.619873Z" fill="white"/>
</mask>
<g mask="url(#mask1_6314_2840)">
<path d="M39.5016 23.5449H7.47656V49.2699H39.5016V23.5449Z" fill="#634C9F"/>
<path d="M39.6758 30.8949H46.6758L54.5508 45.9449C55.4258 47.5199 54.2008 49.2699 52.6258 49.2699H38.8008" stroke="#1D1D1B" stroke-width="1.5" stroke-miterlimit="10" stroke-linecap="round" stroke-linejoin="round"/>
<path d="M15.3523 54.6948C17.6273 54.6948 19.5523 52.7698 19.5523 50.3198C19.5523 47.8698 17.6273 45.9448 15.3523 45.9448C13.0773 45.9448 11.1523 47.8698 11.1523 50.3198C11.1523 52.7698 13.0773 54.6948 15.3523 54.6948Z" stroke="#1D1D1B" stroke-width="1.5" stroke-miterlimit="10" stroke-linecap="round" stroke-linejoin="round"/>
<path d="M46.1492 54.6948C48.4242 54.6948 50.3492 52.7698 50.3492 50.3198C50.3492 47.8698 48.4242 45.9448 46.1492 45.9448C43.8742 45.9448 41.9492 47.8698 41.9492 50.3198C41.9492 52.7698 43.8742 54.6948 46.1492 54.6948Z" stroke="#1D1D1B" stroke-width="1.5" stroke-miterlimit="10" stroke-linecap="round" stroke-linejoin="round"/>
<path d="M5.72656 44.1948H18.8516" stroke="#1D1D1B" stroke-width="1.5" stroke-miterlimit="10" stroke-linecap="round" stroke-linejoin="round"/>
<path d="M3.10156 40.1699H16.2266" stroke="#1D1D1B" stroke-width="1.5" stroke-miterlimit="10" stroke-linecap="round" stroke-linejoin="round"/>
<path d="M41.7742 28.2699C48.9492 28.2699 54.7242 22.4949 54.7242 15.3199C54.7242 8.14487 48.9492 2.36987 41.7742 2.36987C34.5992 2.36987 28.8242 8.14487 28.8242 15.3199C28.8242 22.3199 34.5992 28.2699 41.7742 28.2699Z" fill="#FFB709"/>
<path d="M36.1758 13.0449L41.2508 22.8449L48.4258 9.36987" stroke="#1D1D1B" stroke-width="1.5" stroke-miterlimit="10" stroke-linecap="round" stroke-linejoin="round"/>
</g>
</g>
</svg>
