<svg width="20" height="24" viewBox="0 0 20 24" fill="none" xmlns="http://www.w3.org/2000/svg">
<path d="M9.70216 0.403986C7.98616 0.403986 6.39149 0.83732 4.91816 1.70399C3.47949 2.53599 2.33549 3.67132 1.48616 5.10999C0.602156 6.60065 0.160156 8.21265 0.160156 9.94599C0.160156 11.8007 0.792823 13.768 2.05816 15.848C3.01149 17.4253 4.28549 19.02 5.88016 20.632C6.74682 21.4987 7.73482 22.4 8.84416 23.336L9.15616 23.596C9.20816 23.648 9.28616 23.6957 9.39016 23.739C9.49416 23.7823 9.60249 23.804 9.71516 23.804C9.82782 23.804 9.92316 23.791 10.0012 23.765C10.0792 23.739 10.1615 23.6827 10.2482 23.596L10.5602 23.336C11.6695 22.4 12.6575 21.4987 13.5242 20.632C15.1188 19.02 16.3928 17.4253 17.3462 15.848C18.6115 13.768 19.2442 11.8007 19.2442 9.94599C19.2442 8.21265 18.8022 6.60065 17.9182 5.10999C17.0688 3.67132 15.9248 2.53599 14.4862 1.70399C13.0128 0.83732 11.4182 0.403986 9.70216 0.403986ZM9.70216 21.75C8.78349 21.0047 7.84749 20.1467 6.89416 19.176C5.49016 17.7027 4.37216 16.264 3.54016 14.86C2.44816 13.04 1.90216 11.3673 1.90216 9.84199C1.90216 8.42065 2.25749 7.10332 2.96816 5.88999C3.64416 4.71132 4.57149 3.78399 5.75016 3.10799C6.96349 2.39732 8.28082 2.04199 9.70216 2.04199C11.1235 2.04199 12.4408 2.40599 13.6542 3.13399C14.8328 3.82732 15.7688 4.77199 16.4622 5.96799C17.1555 7.16399 17.5022 8.45532 17.5022 9.84199C17.5022 11.4193 16.9562 13.118 15.8642 14.938C15.0322 16.3247 13.9142 17.746 12.5102 19.202C11.5915 20.138 10.6555 20.9873 9.70216 21.75ZM9.70216 5.81199C8.95682 5.81199 8.27216 5.99832 7.64816 6.37099C7.02416 6.74365 6.52582 7.24632 6.15316 7.87899C5.78049 8.51165 5.59416 9.20065 5.59416 9.94599C5.59416 10.6913 5.78049 11.3803 6.15316 12.013C6.52582 12.6457 7.02416 13.144 7.64816 13.508C8.27216 13.872 8.95682 14.054 9.70216 14.054C10.4475 14.054 11.1365 13.8677 11.7692 13.495C12.4018 13.1223 12.9002 12.624 13.2642 12C13.6282 11.376 13.8102 10.6913 13.8102 9.94599C13.8102 9.20065 13.6282 8.51165 13.2642 7.87899C12.9002 7.24632 12.4018 6.74365 11.7692 6.37099C11.1365 5.99832 10.4475 5.81199 9.70216 5.81199ZM9.70216 12.312C9.04349 12.312 8.48016 12.078 8.01216 11.61C7.54416 11.142 7.31016 10.5873 7.31016 9.94599C7.31016 9.51265 7.41849 9.11399 7.63516 8.74999C7.85182 8.38599 8.14216 8.09565 8.50616 7.87899C8.87016 7.66232 9.26882 7.55399 9.70216 7.55399C10.1355 7.55399 10.5342 7.66232 10.8982 7.87899C11.2622 8.09565 11.5525 8.38599 11.7692 8.74999C11.9858 9.11399 12.0942 9.51265 12.0942 9.94599C12.0942 10.5873 11.8602 11.142 11.3922 11.61C10.9242 12.078 10.3608 12.312 9.70216 12.312Z" fill="#030712"/>
</svg>
