<svg width="45" height="39" viewBox="0 0 45 39" fill="none" xmlns="http://www.w3.org/2000/svg">
<path d="M22.3595 38.6274C31.1723 38.6274 38.3166 31.4831 38.3166 22.6703V11.0633C38.3166 7.55192 35.4701 4.70541 31.9587 4.70541H12.7603C9.24884 4.70541 6.40234 7.55192 6.40234 11.0633V22.6702C6.40234 31.4831 13.5466 38.6274 22.3595 38.6274Z" fill="#634C9F"/>
<path d="M15.0287 23.5561C15.3612 25.0521 16.3586 27.0467 17.5222 27.3792C24.2057 29.6578 31.3059 29.5767 38.3151 29.6726V11.0633C38.3151 7.55191 35.4686 4.70541 31.9571 4.70541H12.7587C10.8622 4.70541 9.16086 5.53672 7.99609 6.85359C13.5001 10.2033 13.3089 17.6146 15.0287 23.5561Z" fill="#FACC15"/>
<path d="M36.7976 30.5977C36.6699 30.5977 36.5415 30.5926 36.4123 30.5821L20.0381 29.2454C17.5265 29.0403 15.4061 27.2658 14.7617 24.8299L11.5694 12.7637C11.0034 10.6182 10.4179 8.39986 7.9167 7.7278L0.79662 6.26399C0.257208 6.15311 -0.090377 5.62584 0.0206638 5.08626C0.131538 4.54668 0.659649 4.19926 1.1984 4.31013L8.39926 5.79207C12.0463 6.75187 12.8854 9.93249 13.4982 12.2549L13.5391 12.4101L16.6901 24.3198C17.1188 25.9403 18.5294 27.1207 20.2003 27.2573L36.5747 28.594C37.8766 28.7004 39.0729 27.8636 39.4202 26.6049L42.4368 15.6702L21.5278 13.9526C21.0755 13.9158 20.6488 14.0925 20.3559 14.4385C20.063 14.7845 19.9588 15.2349 20.07 15.6744L21.0032 19.3651C21.3117 20.5849 22.36 21.4892 23.612 21.6154L33.4695 22.6088C33.9729 22.6595 34.4327 22.3598 34.5906 21.8805C34.6927 21.57 34.6486 21.235 34.4694 20.9616C34.2901 20.6882 34.0005 20.5139 33.6748 20.4839L25.3966 19.7182C24.8483 19.6675 24.4448 19.1818 24.4955 18.6332C24.5462 18.0848 25.0293 17.6811 25.5805 17.7319L33.8587 18.4976C34.7927 18.584 35.6234 19.0836 36.1377 19.8682C36.6518 20.6526 36.7785 21.6137 36.4851 22.5045C36.0321 23.8797 34.7081 24.7388 33.2696 24.5934L23.412 23.6C21.328 23.39 19.5828 21.8847 19.0693 19.8542L18.1361 16.1634C17.865 15.0917 18.1193 13.9933 18.8336 13.1497C19.5479 12.3059 20.5893 11.8745 21.6911 11.9645L45 13.8793L41.3431 27.1353C40.7758 29.1914 38.9001 30.5976 36.7976 30.5977Z" fill="#634C9F"/>
<path d="M22.3716 33.0547C22.3716 34.5543 21.156 35.7699 19.6564 35.7699C18.157 35.7699 16.9414 34.5543 16.9414 33.0547C16.9414 31.5552 18.157 30.3397 19.6564 30.3397C21.156 30.3397 22.3716 31.5552 22.3716 33.0547Z" fill="#DC2626"/>
<path d="M35.8666 33.8801C35.8666 34.7862 35.1322 35.5206 34.2263 35.5206C33.3203 35.5206 32.5859 34.7862 32.5859 33.8801C32.5859 32.9741 33.3203 32.2397 34.2263 32.2397C35.1322 32.2397 35.8666 32.9741 35.8666 33.8801Z" fill="#DC2626"/>
<path d="M19.5192 8.92796C19.5192 10.2438 18.4525 11.3105 17.1366 11.3105C15.8208 11.3105 14.7539 10.2438 14.7539 8.92796C14.7539 7.61209 15.8208 6.54523 17.1366 6.54523C18.4525 6.54523 19.5192 7.61209 19.5192 8.92796Z" fill="#F25321"/>
<path d="M23.9375 3.22066C23.9375 4.99948 22.4956 6.44135 20.7168 6.44135C18.9381 6.44135 17.4961 4.99948 17.4961 3.22066C17.4961 1.44202 18.9381 -1.81198e-05 20.7168 -1.81198e-05C22.4956 -1.81198e-05 23.9375 1.44202 23.9375 3.22066Z" fill="#634C9F"/>
<path d="M23.1557 8.13371C23.1557 8.7559 22.6514 9.26041 22.029 9.26041C21.4068 9.26041 20.9023 8.7559 20.9023 8.13371C20.9023 7.51151 21.4068 7.00701 22.029 7.00701C22.6514 7.00701 23.1557 7.51151 23.1557 8.13371Z" fill="#634C9F"/>
<path d="M30.1459 4.85533C30.1459 6.29355 28.9798 7.45947 27.5416 7.45947C26.1033 7.45947 24.9375 6.29355 24.9375 4.85533C24.9375 3.41696 26.1033 2.25103 27.5416 2.25103C28.9798 2.25103 30.1459 3.41696 30.1459 4.85533Z" fill="#F25321"/>
<path d="M32.649 9.74515C32.649 10.9157 31.7 11.8646 30.5296 11.8646C29.359 11.8646 28.4102 10.9157 28.4102 9.74515C28.4102 8.57473 29.359 7.62573 30.5296 7.62573C31.7 7.62573 32.649 8.57473 32.649 9.74515Z" fill="#F25321"/>
<path d="M41.6451 10.6734C41.6451 11.844 40.6961 12.7928 39.5257 12.7928C38.3551 12.7928 37.4062 11.844 37.4062 10.6734C37.4062 9.50295 38.3551 8.55395 39.5257 8.55395C40.6961 8.55395 41.6451 9.50295 41.6451 10.6734Z" fill="#634C9F"/>
<path d="M26.9118 10.1192C26.9118 10.8996 26.2793 11.5321 25.4989 11.5321C24.7186 11.5321 24.0859 10.8996 24.0859 10.1192C24.0859 9.33888 24.7186 8.70622 25.4989 8.70622C26.2793 8.70622 26.9118 9.33888 26.9118 10.1192Z" fill="#634C9F"/>
<path d="M35.4721 4.99384C35.4721 5.97309 34.6782 6.767 33.6989 6.767C32.7199 6.767 31.9258 5.97309 31.9258 4.99384C31.9258 4.01458 32.7199 3.22067 33.6989 3.22067C34.6782 3.22067 35.4721 4.01458 35.4721 4.99384Z" fill="#634C9F"/>
<path d="M36.2204 10.6734C36.2204 11.4536 35.5879 12.0863 34.8075 12.0863C34.0272 12.0863 33.3945 11.4536 33.3945 10.6734C33.3945 9.89308 34.0272 9.26042 34.8075 9.26042C35.5879 9.26042 36.2204 9.89308 36.2204 10.6734Z" fill="#634C9F"/>
<path d="M37.8591 7.45948C37.8591 8.11742 37.3257 8.65085 36.6678 8.65085C36.0098 8.65085 35.4766 8.11742 35.4766 7.45948C35.4766 6.80155 36.0098 6.26829 36.6678 6.26829C37.3257 6.26829 37.8591 6.80155 37.8591 7.45948Z" fill="#F25321"/>
</svg>
