<svg width="20" height="21" viewBox="0 0 20 21" fill="none" xmlns="http://www.w3.org/2000/svg">
<g clip-path="url(#clip0_6314_4139)">
<g clip-path="url(#clip1_6314_4139)">
<path d="M8.99942 20.46C7.05942 20.46 5.23942 19.7 3.85942 18.32C3.13942 17.6 2.51942 16.74 2.11942 15.8C1.65942 14.78 1.39942 13.7 1.39942 12.58C1.35942 10.04 2.53942 7.48 4.81942 5.22C5.71942 4.3 7.91942 2.48 10.3994 1.38C13.4794 0.0400001 15.9994 0.24 17.7194 1.94C18.1394 2.36 18.4394 3.04 18.5394 3.76C18.6194 4.38 18.5994 5.32 17.9794 6.3C16.5394 8.62 15.9994 10.48 16.2194 12.3C16.4994 14.54 15.7394 16.74 14.1394 18.34C12.7594 19.7 10.9394 20.46 8.99942 20.46ZM14.0994 1.66C13.1594 1.66 12.0794 1.92 10.8794 2.46C8.55942 3.48 6.49942 5.2 5.63942 6.04C1.35942 10.34 2.07942 14.88 4.67942 17.5C7.05942 19.88 10.9194 19.88 13.3194 17.5C14.6394 16.18 15.2794 14.32 15.0594 12.44C14.7994 10.34 15.3994 8.26 16.9794 5.7C17.7794 4.38 17.2594 3.14 16.8794 2.78C16.1394 2.04 15.2194 1.66 14.0994 1.66ZM8.99942 18.12C7.67942 18.12 6.43942 17.6 5.51942 16.66C4.39942 15.56 3.75942 14.06 3.73942 12.56C3.71942 11.68 3.91942 10.78 4.29942 9.9C4.75942 8.88 5.47942 7.86 6.45942 6.88C8.13942 5.2 11.6194 2.84 14.0994 2.84C14.6394 2.84 15.0794 2.94 15.4794 3.16C15.7994 3.34 16.0394 3.64 16.1394 4C16.2394 4.36 16.1794 4.74 15.9994 5.06L15.9794 5.08C14.2794 7.84 13.6194 10.22 13.8994 12.58C14.0794 14.1 13.5594 15.6 12.4794 16.68C11.5394 17.6 10.3194 18.12 8.99942 18.12ZM14.0994 4.02C12.0794 4.02 8.83942 6.16 7.29942 7.7C6.41942 8.58 5.77942 9.48 5.37942 10.38C5.05942 11.1 4.89942 11.84 4.89942 12.54C4.91942 13.74 5.43942 14.94 6.33942 15.84C7.05942 16.56 7.99942 16.94 8.99942 16.94C9.99942 16.94 10.9394 16.56 11.6594 15.84C12.4794 15.02 12.8794 13.88 12.7394 12.72C12.4194 10.1 13.1394 7.46 14.9794 4.46C15.0194 4.4 15.0194 4.34 14.9994 4.3C14.9994 4.28 14.9794 4.22 14.9194 4.18C14.6994 4.06 14.4394 4.02 14.0994 4.02ZM9.03942 15.16C7.99942 15.16 7.15942 14.32 7.15942 13.28C7.15942 12.24 7.99942 11.4 9.03942 11.4C10.0794 11.4 10.9194 12.24 10.9194 13.28C10.9194 14.32 10.0794 15.16 9.03942 15.16ZM9.03942 12.58C8.65942 12.58 8.33942 12.88 8.33942 13.28C8.33942 13.68 8.65942 13.98 9.03942 13.98C9.41942 13.98 9.75942 13.66 9.75942 13.28C9.75942 12.9 9.43942 12.58 9.03942 12.58Z" fill="black"/>
</g>
</g>
<defs>
<clipPath id="clip0_6314_4139">
<rect width="20" height="20" fill="white" transform="translate(0 0.5)"/>
</clipPath>
<clipPath id="clip1_6314_4139">
<rect width="20" height="20" fill="white" transform="translate(0 0.5)"/>
</clipPath>
</defs>
</svg>
