<svg width="81" height="25" viewBox="0 0 81 25" fill="none" xmlns="http://www.w3.org/2000/svg">
<path d="M0 12.5901C0 5.96267 5.37258 0.590088 12 0.590088H68.19C74.8174 0.590088 80.19 5.96267 80.19 12.5901C80.19 19.2175 74.8174 24.5901 68.19 24.5901H12C5.37259 24.5901 0 19.2175 0 12.5901Z" fill="url(#paint0_linear_6314_1823)"/>
<path d="M8.29297 8.70807H6.66797C6.66797 11.8411 9.21597 14.3891 12.362 14.3891V17.6391C12.362 18.1071 12.726 18.4841 13.142 18.4841C13.558 18.4841 13.987 18.1071 13.987 17.6651V14.4151C13.987 11.2691 11.439 8.70807 8.29297 8.70807ZM18.043 7.09607C15.898 7.09607 14.052 8.27907 13.077 10.0341C13.779 10.7881 14.299 11.7241 14.572 12.7641C17.432 12.4651 19.668 10.0471 19.668 7.09607H18.043Z" fill="#166534"/>
<path d="M32.423 12.9537C32.423 13.7539 32.2691 14.4322 31.9613 14.9885C31.6536 15.5449 31.2369 15.9675 30.7113 16.2563C30.1881 16.5451 29.601 16.6895 28.95 16.6895C28.2966 16.6895 27.7083 16.5439 27.1851 16.2527C26.6619 15.9615 26.2464 15.539 25.9386 14.985C25.6332 14.4286 25.4805 13.7515 25.4805 12.9537C25.4805 12.1535 25.6332 11.4753 25.9386 10.9189C26.2464 10.3626 26.6619 9.93999 27.1851 9.65117C27.7083 9.36234 28.2966 9.21793 28.95 9.21793C29.601 9.21793 30.1881 9.36234 30.7113 9.65117C31.2369 9.93999 31.6536 10.3626 31.9613 10.9189C32.2691 11.4753 32.423 12.1535 32.423 12.9537ZM30.6261 12.9537C30.6261 12.4802 30.5587 12.0801 30.4237 11.7534C30.2911 11.4267 30.0994 11.1793 29.8484 11.0113C29.5998 10.8432 29.3004 10.7591 28.95 10.7591C28.602 10.7591 28.3025 10.8432 28.0515 11.0113C27.8006 11.1793 27.6077 11.4267 27.4727 11.7534C27.3401 12.0801 27.2738 12.4802 27.2738 12.9537C27.2738 13.4272 27.3401 13.8273 27.4727 14.154C27.6077 14.4807 27.8006 14.7281 28.0515 14.8962C28.3025 15.0643 28.602 15.1483 28.95 15.1483C29.3004 15.1483 29.5998 15.0643 29.8484 14.8962C30.0994 14.7281 30.2911 14.4807 30.4237 14.154C30.5587 13.8273 30.6261 13.4272 30.6261 12.9537ZM33.1293 16.5901V9.31736H36.1335C36.678 9.31736 37.148 9.41561 37.5433 9.6121C37.9411 9.80623 38.2476 10.0856 38.4631 10.4502C38.6785 10.8124 38.7862 11.2421 38.7862 11.7392C38.7862 12.2435 38.6762 12.672 38.456 13.0247C38.2358 13.3751 37.9233 13.6426 37.5185 13.8273C37.1137 14.0096 36.6342 14.1007 36.0803 14.1007H34.1804V12.7158H35.7536C36.0187 12.7158 36.2401 12.6815 36.4176 12.6128C36.5976 12.5418 36.7337 12.4353 36.826 12.2932C36.9183 12.1488 36.9645 11.9641 36.9645 11.7392C36.9645 11.5143 36.9183 11.3285 36.826 11.1817C36.7337 11.0326 36.5976 10.9213 36.4176 10.8479C36.2377 10.7721 36.0163 10.7343 35.7536 10.7343H34.8871V16.5901H33.1293ZM37.2237 13.2662L39.0348 16.5901H37.1172L35.3416 13.2662H37.2237ZM44.2031 11.6931C44.1629 11.5439 44.1037 11.4125 44.0255 11.2989C43.9474 11.1829 43.8515 11.0846 43.7379 11.0042C43.6243 10.9237 43.4941 10.8633 43.3473 10.823C43.2005 10.7804 43.0395 10.7591 42.8643 10.7591C42.5116 10.7591 42.2062 10.8443 41.9481 11.0148C41.6924 11.1853 41.4948 11.4338 41.3551 11.7605C41.2154 12.0849 41.1456 12.4791 41.1456 12.9431C41.1456 13.4095 41.213 13.8072 41.348 14.1363C41.4829 14.4653 41.6782 14.7163 41.9339 14.8891C42.1896 15.0619 42.4997 15.1483 42.8643 15.1483C43.1863 15.1483 43.4585 15.0962 43.6811 14.9921C43.906 14.8855 44.0764 14.7352 44.1924 14.5411C44.3084 14.347 44.3664 14.1185 44.3664 13.8557L44.6932 13.8948H42.9247V12.6128H46.0603V13.5752C46.0603 14.2262 45.9218 14.7837 45.6449 15.2478C45.3702 15.7118 44.9914 16.0681 44.5085 16.3167C44.0279 16.5652 43.4751 16.6895 42.8501 16.6895C42.1565 16.6895 41.5468 16.5392 41.0213 16.2385C40.4957 15.9379 40.0861 15.5094 39.7926 14.953C39.499 14.3943 39.3522 13.7314 39.3522 12.9644C39.3522 12.3678 39.441 11.8387 39.6186 11.377C39.7961 10.913 40.0435 10.52 40.3608 10.198C40.6804 9.87607 41.0497 9.63223 41.4687 9.46651C41.8901 9.30079 42.3435 9.21793 42.8288 9.21793C43.2502 9.21793 43.642 9.2783 44.0042 9.39904C44.3688 9.51978 44.6908 9.69023 44.9701 9.9104C45.2519 10.1306 45.4803 10.3922 45.6555 10.6952C45.8307 10.9982 45.9396 11.3309 45.9822 11.6931H44.2031ZM48.1249 16.5901H46.2357L48.6896 9.31736H51.0298L53.4836 16.5901H51.5944L49.8863 11.1497H49.8295L48.1249 16.5901ZM47.8728 13.7279H51.8217V15.0631H47.8728V13.7279ZM60.1362 9.31736V16.5901H58.6448L55.7506 12.3926H55.7044V16.5901H53.9466V9.31736H55.4594L58.3216 13.5077H58.382V9.31736H60.1362ZM62.6794 9.31736V16.5901H60.9215V9.31736H62.6794ZM70.0644 11.9523H68.2889C68.2652 11.77 68.2167 11.6055 68.1433 11.4587C68.0699 11.3119 67.9728 11.1864 67.8521 11.0823C67.7313 10.9781 67.5881 10.8988 67.4224 10.8443C67.259 10.7875 67.0779 10.7591 66.8791 10.7591C66.5263 10.7591 66.2221 10.8455 65.9664 11.0184C65.7131 11.1912 65.5178 11.4409 65.3805 11.7676C65.2455 12.0943 65.1781 12.4897 65.1781 12.9537C65.1781 13.4367 65.2467 13.8415 65.384 14.1682C65.5237 14.4925 65.719 14.7376 65.97 14.9033C66.2233 15.0667 66.5228 15.1483 66.8684 15.1483C67.0625 15.1483 67.2389 15.1235 67.3975 15.0738C67.5585 15.024 67.6994 14.9518 67.8201 14.8571C67.9432 14.7601 68.0438 14.6429 68.122 14.5056C68.2025 14.3659 68.2581 14.2085 68.2889 14.0333L70.0644 14.0439C70.0337 14.3659 69.9401 14.6831 69.7839 14.9956C69.63 15.3081 69.4181 15.5934 69.1482 15.8515C68.8784 16.1071 68.5493 16.3107 68.161 16.4622C67.7751 16.6138 67.3324 16.6895 66.8329 16.6895C66.1748 16.6895 65.5853 16.5451 65.0644 16.2563C64.546 15.9651 64.1364 15.5413 63.8357 14.985C63.5351 14.4286 63.3847 13.7515 63.3847 12.9537C63.3847 12.1535 63.5374 11.4753 63.8428 10.9189C64.1482 10.3626 64.5614 9.93999 65.0822 9.65117C65.603 9.36234 66.1866 9.21793 66.8329 9.21793C67.2732 9.21793 67.6804 9.27948 68.0545 9.40259C68.4285 9.52333 68.7576 9.70088 69.0417 9.93526C69.3258 10.1673 69.5566 10.4525 69.7342 10.7911C69.9117 11.1296 70.0218 11.5167 70.0644 11.9523Z" fill="#166534"/>
<defs>
<linearGradient id="paint0_linear_6314_1823" x1="0" y1="12.5901" x2="80.19" y2="12.5901" gradientUnits="userSpaceOnUse">
<stop stop-color="#D4FC79"/>
<stop offset="0.5" stop-color="#96E6A1"/>
</linearGradient>
</defs>
</svg>
