<svg width="26" height="26" viewBox="0 0 26 26" fill="none" xmlns="http://www.w3.org/2000/svg">
<path d="M22.3434 15.2654C21.13 15.1347 20.122 14.864 19.3194 14.4534C18.7407 14.2294 18.148 14.1874 17.5414 14.3274C16.9347 14.4674 16.398 14.7427 15.9314 15.1534L14.8674 16.3294C12.5154 14.7987 10.574 12.8574 9.04338 10.5054L10.1074 9.44138C10.5554 8.99338 10.84 8.46605 10.9614 7.85938C11.0827 7.25272 11.0314 6.65072 10.8074 6.05338C10.4714 5.17605 10.238 4.16805 10.1074 3.02938C9.97672 2.26405 9.59872 1.62472 8.97338 1.11138C8.34805 0.598051 7.63405 0.341383 6.83138 0.341383H3.10738C2.52872 0.378717 2.01072 0.565384 1.55338 0.901384C1.09605 1.23738 0.741382 1.66672 0.489382 2.18938C0.237382 2.71205 0.130049 3.26272 0.167382 3.84138C0.354049 5.70805 0.764715 7.53272 1.39938 9.31538C2.03405 11.0981 2.87405 12.7734 3.91938 14.3414C5.78605 17.2907 8.19405 19.6987 11.1434 21.5654C12.73 22.5547 14.41 23.3667 16.1834 24.0014C17.9567 24.636 19.7767 25.0747 21.6434 25.3174H22.0074C22.3994 25.3174 22.7914 25.2334 23.1834 25.0654C23.5754 24.8974 23.9207 24.6687 24.2194 24.3794C24.518 24.09 24.7467 23.7494 24.9054 23.3574C25.064 22.9654 25.1434 22.564 25.1434 22.1534V18.6534C25.1434 17.7947 24.882 17.048 24.3594 16.4134C23.8367 15.7787 23.1647 15.396 22.3434 15.2654ZM23.2674 18.5414V22.0414C23.2674 22.4334 23.118 22.788 22.8194 23.1054C22.4834 23.404 22.1287 23.5534 21.7554 23.5534H21.6434C19.926 23.3854 18.2554 23.012 16.6314 22.4334C14.9514 21.836 13.3927 21.0427 11.9554 20.0534C10.63 19.1947 9.39338 18.1914 8.24538 17.0434C7.09738 15.8954 6.08472 14.6494 5.20738 13.3054C4.27405 11.8494 3.51338 10.3 2.92538 8.65738C2.33738 7.01472 1.93138 5.33472 1.70738 3.61738C1.76338 3.18805 1.93138 2.82872 2.21138 2.53938C2.49138 2.25005 2.82738 2.10538 3.21938 2.10538H6.83138C7.18605 2.10538 7.50805 2.23138 7.79738 2.48338C8.08672 2.73538 8.23138 3.02938 8.23138 3.36538C8.26872 3.85072 8.36205 4.39205 8.51138 4.98938C8.60472 5.36272 8.75405 5.90405 8.95938 6.61338L9.04338 6.86538C9.15538 7.16405 9.18338 7.44872 9.12738 7.71938C9.07138 7.99005 8.93138 8.21872 8.70738 8.40538L7.41938 9.80538C7.25138 9.91738 7.15338 10.0714 7.12538 10.2674C7.09738 10.4634 7.11138 10.6547 7.16738 10.8414C8.04472 12.3534 9.11338 13.7394 10.3734 14.9994C11.6334 16.2594 13.0194 17.328 14.5314 18.2054C14.6994 18.3174 14.886 18.3547 15.0914 18.3174C15.2967 18.28 15.4554 18.196 15.5674 18.0654L17.1074 16.5534C17.294 16.3667 17.5367 16.236 17.8354 16.1614C18.134 16.0867 18.3954 16.1054 18.6194 16.2174C19.702 16.6467 20.8687 16.9174 22.1194 17.0294C22.474 17.0854 22.7727 17.2674 23.0154 17.5754C23.258 17.8834 23.342 18.2054 23.2674 18.5414ZM14.8674 1.96538C16.3794 2.11472 17.7514 2.58138 18.9834 3.36538C20.2154 4.14938 21.2234 5.15738 22.0074 6.38938C22.7914 7.62138 23.258 8.99338 23.4074 10.5054C23.4074 10.7294 23.496 10.9207 23.6734 11.0794C23.8507 11.238 24.0327 11.3174 24.2194 11.3174H24.3314C24.5554 11.3174 24.7467 11.2194 24.9054 11.0234C25.064 10.8274 25.1434 10.6081 25.1434 10.3654C24.9567 8.61072 24.3874 6.99605 23.4354 5.52138C22.5207 4.08405 21.3307 2.90805 19.8654 1.99338C18.4 1.07872 16.7807 0.528049 15.0074 0.341383C14.7647 0.341383 14.5454 0.420717 14.3494 0.579384C14.1534 0.73805 14.0554 0.92005 14.0554 1.12538C14.0554 1.33072 14.1347 1.52205 14.2934 1.69938C14.452 1.87672 14.6434 1.96538 14.8674 1.96538ZM14.0554 5.71738C13.9994 5.94138 14.046 6.15605 14.1954 6.36138C14.3447 6.56672 14.5314 6.69738 14.7554 6.75338C15.726 6.94005 16.5707 7.39738 17.2894 8.12538C18.008 8.85338 18.4887 9.72138 18.7314 10.7294C18.7874 10.9534 18.89 11.126 19.0394 11.2474C19.1887 11.3687 19.3567 11.4294 19.5434 11.4294H19.6554C19.898 11.3734 20.0894 11.2427 20.2294 11.0374C20.3694 10.8321 20.4114 10.6081 20.3554 10.3654C20.1314 9.04005 19.5387 7.89205 18.5774 6.92138C17.616 5.95072 16.4634 5.31605 15.1194 5.01738C14.8767 4.96138 14.6527 4.99405 14.4474 5.11538C14.242 5.23672 14.1114 5.43738 14.0554 5.71738Z" fill="#111827"/>
</svg>
