<svg width="11" height="11" viewBox="0 0 11 11" fill="none" xmlns="http://www.w3.org/2000/svg">
<path d="M10.165 4.95587H6.02097V0.747872C6.02097 0.609206 5.97297 0.486539 5.87697 0.379872C5.78097 0.273206 5.65297 0.219872 5.49297 0.219872C5.33297 0.219872 5.20497 0.273206 5.10897 0.379872C5.01297 0.486539 4.96497 0.609206 4.96497 0.747872V4.89187H0.820969C0.682302 4.89187 0.559635 4.93987 0.452969 5.03587C0.346302 5.13187 0.292969 5.26254 0.292969 5.42787C0.292969 5.59321 0.340969 5.72121 0.436969 5.81187C0.532969 5.90254 0.660969 5.94787 0.820969 5.94787H4.96497V10.0919C4.96497 10.2305 5.01297 10.3532 5.10897 10.4599C5.20497 10.5665 5.33564 10.6199 5.50097 10.6199C5.6663 10.6199 5.7943 10.5719 5.88497 10.4759C5.97564 10.3799 6.02097 10.2519 6.02097 10.0919V5.94787H10.165C10.3036 5.94787 10.4263 5.89987 10.533 5.80387C10.6396 5.70787 10.693 5.57987 10.693 5.41987C10.693 5.25987 10.6423 5.14254 10.541 5.06787C10.4396 4.99321 10.3143 4.95587 10.165 4.95587Z" fill="#634C9F"/>
</svg>
