<svg width="22" height="22" viewBox="0 0 22 22" fill="none" xmlns="http://www.w3.org/2000/svg">
<path d="M21.4938 20.204L17.3858 16.096C18.0965 15.264 18.6512 14.3237 19.0498 13.275C19.4485 12.2263 19.6478 11.1387 19.6478 10.012C19.6478 8.296 19.2145 6.70134 18.3478 5.228C17.5158 3.78934 16.3805 2.64534 14.9418 1.796C13.4685 0.929337 11.8652 0.496002 10.1318 0.496002C8.39851 0.496002 6.79518 0.929337 5.32184 1.796C3.88318 2.628 2.73918 3.75467 1.88984 5.176C1.02318 6.66667 0.589844 8.27434 0.589844 9.999C0.589844 11.7237 1.02318 13.3227 1.88984 14.796C2.72184 16.2347 3.84851 17.3787 5.26984 18.228C6.76051 19.112 8.37251 19.554 10.1058 19.554C11.2325 19.554 12.3202 19.3547 13.3688 18.956C14.4175 18.5573 15.3578 18.0027 16.1898 17.292L20.2978 21.4C20.3498 21.452 20.4278 21.4997 20.5318 21.543C20.6358 21.5863 20.7398 21.608 20.8438 21.608C20.9478 21.608 21.0518 21.5863 21.1558 21.543C21.2598 21.4997 21.3378 21.452 21.3898 21.4C21.5978 21.192 21.7062 20.984 21.7148 20.776C21.7235 20.568 21.6498 20.3773 21.4938 20.204ZM2.30584 9.908C2.30584 8.48667 2.66118 7.16934 3.37184 5.956C4.06518 4.79467 4.99251 3.86734 6.15384 3.174C7.36718 2.46334 8.68451 2.108 10.1058 2.108C11.5272 2.108 12.8445 2.472 14.0578 3.2C15.2365 3.89334 16.1725 4.838 16.8658 6.034C17.5592 7.23 17.9058 8.53 17.9058 9.934C17.9058 11.338 17.5418 12.6467 16.8138 13.86C16.1205 15.0387 15.1758 15.9747 13.9798 16.668C12.7838 17.3613 11.4925 17.708 10.1058 17.708C8.70184 17.7427 7.38451 17.4047 6.15384 16.694C4.99251 16.018 4.06084 15.0733 3.35884 13.86C2.65684 12.6467 2.30584 11.3293 2.30584 9.908Z" fill="black"/>
</svg>
