<svg width="27" height="26" viewBox="0 0 27 26" fill="none" xmlns="http://www.w3.org/2000/svg">
<g clip-path="url(#clip0_6481_89)">
<path d="M21.4938 22.204L17.3858 18.096C18.0965 17.264 18.6512 16.3237 19.0498 15.275C19.4485 14.2263 19.6478 13.1387 19.6478 12.012C19.6478 10.296 19.2145 8.70134 18.3478 7.228C17.5158 5.78934 16.3805 4.64534 14.9418 3.796C13.4685 2.92934 11.8652 2.496 10.1318 2.496C8.39851 2.496 6.79518 2.92934 5.32184 3.796C3.88318 4.628 2.73918 5.75467 1.88984 7.176C1.02318 8.66667 0.589844 10.2743 0.589844 11.999C0.589844 13.7237 1.02318 15.3227 1.88984 16.796C2.72184 18.2347 3.84851 19.3787 5.26984 20.228C6.76051 21.112 8.37251 21.554 10.1058 21.554C11.2325 21.554 12.3202 21.3547 13.3688 20.956C14.4175 20.5573 15.3578 20.0027 16.1898 19.292L20.2978 23.4C20.3498 23.452 20.4278 23.4997 20.5318 23.543C20.6358 23.5863 20.7398 23.608 20.8438 23.608C20.9478 23.608 21.0518 23.5863 21.1558 23.543C21.2598 23.4997 21.3378 23.452 21.3898 23.4C21.5978 23.192 21.7062 22.984 21.7148 22.776C21.7235 22.568 21.6498 22.3773 21.4938 22.204ZM2.30584 11.908C2.30584 10.4867 2.66118 9.16934 3.37184 7.956C4.06518 6.79467 4.99251 5.86734 6.15384 5.174C7.36718 4.46334 8.68451 4.108 10.1058 4.108C11.5272 4.108 12.8445 4.472 14.0578 5.2C15.2365 5.89334 16.1725 6.838 16.8658 8.034C17.5592 9.23 17.9058 10.53 17.9058 11.934C17.9058 13.338 17.5418 14.6467 16.8138 15.86C16.1205 17.0387 15.1758 17.9747 13.9798 18.668C12.7838 19.3613 11.4925 19.708 10.1058 19.708C8.70184 19.7427 7.38451 19.4047 6.15384 18.694C4.99251 18.018 4.06084 17.0733 3.35884 15.86C2.65684 14.6467 2.30584 13.3293 2.30584 11.908Z" fill="black"/>
</g>
<defs>
<clipPath id="clip0_6481_89">
<rect width="26" height="26" fill="white" transform="matrix(1 0 0 -1 0.328125 26)"/>
</clipPath>
</defs>
</svg>
