<svg width="58" height="58" viewBox="0 0 58 58" fill="none" xmlns="http://www.w3.org/2000/svg">
<g clip-path="url(#clip0_6314_2808)">
<mask id="mask0_6314_2808" style="mask-type:luminance" maskUnits="userSpaceOnUse" x="1" y="0" width="56" height="57">
<path d="M57 0.619873H1V56.6199H57V0.619873Z" fill="white"/>
</mask>
<g mask="url(#mask0_6314_2808)">
<path d="M57 30.4017L48.3455 36.6381L51.6545 46.6926L40.9636 46.5653L37.6545 56.6199L29 50.3835L20.3455 56.6199L17.0364 46.5653L6.34545 46.6926L9.65455 36.6381L1 30.4017L9.65455 24.2926L6.34545 14.2381H17.0364L20.3455 4.18355L29 10.2926L37.6545 4.05627L40.9636 14.1108H51.6545L48.3455 24.1653L57 30.4017Z" fill="#634C9F"/>
<path d="M43.6351 18.5654C47.1987 16.4017 50.5078 13.6017 52.7987 10.2927C53.9442 8.63812 54.9624 6.72903 54.7078 4.81994C54.4533 3.03812 53.1805 1.51085 51.3987 1.2563C50.5078 1.00176 49.6169 1.12903 48.8533 1.38358C48.0896 1.51085 47.326 1.76539 46.8169 2.14721C45.2896 3.16539 44.6533 5.20176 44.1442 6.98357C43.2533 10.2927 42.4896 13.3472 41.9805 16.6563" stroke="#1D1D1B" stroke-width="0.5714" stroke-miterlimit="10" stroke-linecap="round" stroke-linejoin="round"/>
<path d="M39.4366 45.6745L25.5638 44.9108L19.582 32.8199L36.1275 8.12903L55.982 20.9836L39.4366 45.6745Z" fill="#FFB709"/>
<path d="M43.6367 18.5654C47.2004 16.4017 50.5094 13.6017 52.8004 10.2927C53.9458 8.63812 54.964 6.72903 54.7094 4.81994C54.4549 3.03812 53.1822 1.51085 51.4004 1.2563C50.5094 1.00176 49.6185 1.12903 48.8549 1.38358C48.0913 1.51085 47.3276 1.76539 46.8185 2.14721C45.2913 3.16539 44.6549 5.20176 44.1458 6.98357C43.8913 7.61994 43.764 8.12903 43.6367 8.89266" stroke="#1D1D1B" stroke-width="0.5714" stroke-miterlimit="10" stroke-linecap="round" stroke-linejoin="round"/>
<path d="M43.5078 27.0927L27.9805 29.5109L28.8715 30.5291L44.3987 28.1109L43.5078 27.0927Z" fill="#1D1D1B"/>
<path d="M38.5472 31.42C38.2926 31.2927 38.1654 31.2927 38.0381 31.2927C37.529 31.1655 37.0199 31.1655 36.5108 31.2927C36.0017 31.5473 35.3654 31.8018 34.8563 32.1836C34.3472 32.6927 33.9654 33.2018 33.7108 33.7109C33.4563 34.22 33.4563 34.7291 33.5835 35.2382C33.7108 35.7473 33.9654 36.2564 34.3472 36.6382L34.4745 36.7655C35.1108 37.4018 35.7472 37.6564 36.5108 37.6564C37.2745 37.6564 38.1654 37.2746 38.929 36.6382C39.6926 35.8746 40.0745 35.1109 40.2017 34.3473C40.329 33.5836 39.9472 32.82 39.4381 32.1836C39.1835 31.8018 38.8017 31.6746 38.5472 31.42ZM35.6199 36.5109C35.4926 36.3836 35.2381 36.2564 35.1108 36.1291C34.729 35.7473 34.6017 35.2382 34.729 34.6018C34.8563 34.0927 35.1108 33.5836 35.7472 32.9473C36.3835 32.4382 36.8926 32.0564 37.4017 32.0564C37.529 32.0564 37.529 32.0564 37.6563 32.0564C38.1654 32.0564 38.4199 32.1836 38.8017 32.5655C39.1835 32.9473 39.3108 33.4564 39.1835 34.0927C39.0563 34.6018 38.6745 35.1109 38.1654 35.62C37.6563 36.1291 37.0199 36.5109 36.5108 36.5109C36.2563 36.6382 35.8745 36.6382 35.6199 36.5109Z" fill="#1D1D1B"/>
<path d="M32.945 25.6927C33.5814 26.3291 34.2178 26.5836 34.9814 26.5836C34.9814 26.5836 34.9814 26.5836 35.1087 26.5836C35.8723 26.5836 36.7632 26.2018 37.5268 25.5654C38.2905 24.8018 38.6723 24.0382 38.7996 23.2745C38.9268 22.5109 38.545 21.7473 38.0359 21.1109C37.7814 20.7291 37.3996 20.6018 37.145 20.4745C36.7632 20.22 36.3814 20.22 35.8723 20.22C35.1087 20.22 34.2178 20.6018 33.4541 21.2382C32.6905 22.0018 32.3087 22.7654 32.1814 23.5291C31.9268 24.2927 32.1814 24.9291 32.945 25.6927ZM35.9996 21.1109C36.3814 21.1109 36.7632 21.3654 37.2723 21.62C37.6541 22.0018 37.7814 22.5109 37.6541 23.1473C37.5268 23.6564 37.145 24.1654 36.6359 24.8018C35.9996 25.3109 35.4905 25.6927 34.9814 25.6927C34.5996 25.82 34.345 25.6927 34.0905 25.5654C33.8359 25.4382 33.7087 25.3109 33.5814 25.1836C33.1996 24.8018 33.0723 24.2927 33.1996 23.6564C33.3268 23.1473 33.7087 22.6382 34.2178 22.0018C34.8541 21.4927 35.3632 21.1109 35.8723 21.1109C35.745 21.1109 35.8723 21.1109 35.9996 21.1109Z" fill="#1D1D1B"/>
</g>
</g>
<defs>
<clipPath id="clip0_6314_2808">
<rect width="57" height="57" fill="white" transform="translate(0.5 0.419922)"/>
</clipPath>
</defs>
</svg>
