<svg width="20" height="21" viewBox="0 0 20 21" fill="none" xmlns="http://www.w3.org/2000/svg">
<g clip-path="url(#clip0_6314_4255)">
<g clip-path="url(#clip1_6314_4255)">
<g clip-path="url(#clip2_6314_4255)">
<path d="M18.9591 3.76C18.9591 3.04 18.4591 2.04 16.0991 1.3C14.4591 0.78 12.2991 0.5 9.99906 0.5C7.69906 0.5 5.53906 0.78 3.89906 1.3C1.53906 2.04 1.03906 3.04 1.03906 3.76V17.2C1.03906 19.36 5.53906 20.5 9.99906 20.5C14.4591 20.5 18.9591 19.36 18.9591 17.2V3.76ZM17.7791 17.2C17.7791 17.56 17.1591 18.1 15.7391 18.56C15.4791 18.64 15.1991 18.72 14.8991 18.8V17.96C14.8991 17.62 14.6391 17.36 14.2991 17.36C13.9591 17.36 13.7191 17.62 13.7191 17.96V19.04C12.5791 19.22 11.3191 19.32 9.99906 19.32C7.81906 19.32 5.77906 19.06 4.25906 18.56C2.85906 18.1 2.21906 17.56 2.21906 17.2V5.48C3.83906 6.5 6.93906 7.04 9.99906 7.04C11.2791 7.04 12.5391 6.96 13.7191 6.78V7.64C13.7191 7.98 13.9791 8.24 14.2991 8.24C14.6191 8.24 14.8991 7.98 14.8991 7.64V6.56C16.0591 6.3 17.0591 5.94 17.7791 5.48V17.2ZM15.7391 5.1C14.2191 5.6 12.1791 5.86 9.99906 5.86C7.81906 5.86 5.77906 5.6 4.25906 5.1C2.85906 4.64 2.21906 4.1 2.21906 3.76C2.21906 3.42 2.83906 2.86 4.25906 2.42C5.77906 1.94 7.81906 1.68 9.99906 1.68C12.1791 1.68 14.2191 1.94 15.7391 2.42C17.1591 2.86 17.7791 3.42 17.7791 3.76C17.7791 4.1 17.1591 4.64 15.7391 5.1ZM12.4591 2.58C11.7991 2.42 10.9191 2.32 9.99906 2.32C9.07906 2.32 8.19906 2.42 7.53906 2.58C6.61906 2.82 6.15906 3.22 6.15906 3.76C6.15906 4.3 6.61906 4.7 7.53906 4.96C8.19906 5.12 9.07906 5.22 9.99906 5.22C10.9191 5.22 11.7991 5.12 12.4591 4.96C13.3791 4.7 13.8391 4.3 13.8391 3.76C13.8391 3.22 13.3791 2.82 12.4591 2.58ZM9.99906 4.04C8.93906 4.04 8.13906 3.9 7.67906 3.76C8.13906 3.64 8.93906 3.5 9.99906 3.5C11.0791 3.5 11.8591 3.64 12.3191 3.76C11.8591 3.9 11.0791 4.04 9.99906 4.04ZM14.2991 9.44C13.9791 9.44 13.7191 9.7 13.7191 10.04V11.6C13.7191 11.94 13.9791 12.2 14.2991 12.2C14.6191 12.2 14.8991 11.94 14.8991 11.6V10.04C14.8991 9.7 14.6391 9.44 14.2991 9.44ZM14.2991 13.4C13.9791 13.4 13.7191 13.66 13.7191 14V15.56C13.7191 15.9 13.9791 16.16 14.2991 16.16C14.6191 16.16 14.8991 15.9 14.8991 15.56V14C14.8991 13.66 14.6391 13.4 14.2991 13.4Z" fill="black"/>
</g>
</g>
</g>
<defs>
<clipPath id="clip0_6314_4255">
<rect width="20" height="20" fill="white" transform="translate(0 0.5)"/>
</clipPath>
<clipPath id="clip1_6314_4255">
<rect width="20" height="20" fill="white" transform="translate(0 0.5)"/>
</clipPath>
<clipPath id="clip2_6314_4255">
<rect width="20" height="20" fill="white" transform="translate(0 0.5)"/>
</clipPath>
</defs>
</svg>
