<svg width="20" height="22" viewBox="0 0 20 22" fill="none" xmlns="http://www.w3.org/2000/svg">
<path d="M12.9423 9.10201C12.1103 9.63934 11.2089 9.90801 10.2383 9.90801C9.59695 9.90801 8.97728 9.78234 8.37928 9.53101C7.78128 9.27968 7.25261 8.92868 6.79328 8.47801C6.33395 8.02734 5.98295 7.50301 5.74028 6.90501C5.49761 6.30701 5.37628 5.68735 5.37628 5.04601C5.37628 4.04068 5.64928 3.13068 6.19528 2.31601C6.74128 1.50134 7.46061 0.907679 8.35328 0.535011C9.24595 0.162346 10.1949 0.0713444 11.2003 0.262012C12.1363 0.435345 12.9596 0.873011 13.6703 1.57501C14.3809 2.27701 14.8273 3.10901 15.0093 4.07101C15.1913 5.03301 15.1003 5.97334 14.7363 6.89201C14.3723 7.81068 13.7743 8.54734 12.9423 9.10201ZM11.7463 2.78401C11.2956 2.48935 10.7929 2.34201 10.2383 2.34201C9.51028 2.34201 8.86895 2.60201 8.31428 3.12201C7.79428 3.67668 7.53428 4.31801 7.53428 5.04601C7.53428 5.60068 7.68595 6.10334 7.98928 6.55401C8.29261 7.00468 8.69561 7.33401 9.19828 7.54201C9.70095 7.75001 10.2209 7.80201 10.7583 7.69801C11.2956 7.59401 11.7593 7.34701 12.1493 6.95701C12.5393 6.56701 12.7863 6.10334 12.8903 5.56601C12.9943 5.02868 12.9423 4.50868 12.7343 4.00601C12.5263 3.50335 12.1969 3.09601 11.7463 2.78401ZM3.34828 13.86C4.24961 12.9413 5.29828 12.235 6.49428 11.741C7.69028 11.247 8.93828 11 10.2383 11C11.5383 11 12.7863 11.247 13.9823 11.741C15.1783 12.235 16.2313 12.937 17.1413 13.847C18.0513 14.757 18.7533 15.81 19.2473 17.006C19.7413 18.202 19.9883 19.45 19.9883 20.75C19.9883 21.062 19.8756 21.322 19.6503 21.53C19.4249 21.738 19.1736 21.842 18.8963 21.842H13.4883C13.1936 21.842 12.9379 21.7337 12.7213 21.517C12.5046 21.3003 12.3963 21.0447 12.3963 20.75C12.3963 20.4553 12.5046 20.1997 12.7213 19.983C12.9379 19.7663 13.1936 19.658 13.4883 19.658H17.7523C17.6136 18.7567 17.3276 17.903 16.8943 17.097C16.4609 16.291 15.8976 15.5933 15.2043 15.004C14.5109 14.4147 13.7396 13.9597 12.8903 13.639C12.0409 13.3183 11.1569 13.158 10.2383 13.158C9.31961 13.158 8.43561 13.3183 7.58628 13.639C6.73695 13.9597 5.96561 14.4147 5.27228 15.004C4.57895 15.5933 4.01561 16.291 3.58228 17.097C3.14895 17.903 2.86295 18.7567 2.72428 19.658H6.98828C7.26561 19.658 7.52561 19.762 7.76828 19.97C7.97628 20.2127 8.08028 20.4727 8.08028 20.75C8.08028 21.0273 7.97628 21.2873 7.76828 21.53C7.52561 21.738 7.26561 21.842 6.98828 21.842H1.58028C1.30295 21.842 1.05161 21.738 0.826281 21.53C0.600948 21.322 0.488281 21.062 0.488281 20.75C0.488281 19.45 0.735281 18.2063 1.22928 17.019C1.72328 15.8317 2.42961 14.7787 3.34828 13.86Z" fill="#030712"/>
</svg>
