<svg width="20" height="21" viewBox="0 0 20 21" fill="none" xmlns="http://www.w3.org/2000/svg">
<g clip-path="url(#clip0_6314_4241)">
<g clip-path="url(#clip1_6314_4241)">
<g clip-path="url(#clip2_6314_4241)">
<path d="M15.3394 12.76H12.6994C11.6394 12.76 10.6794 13.2 9.97937 13.88V11.64H11.6794C13.5994 11.64 15.1594 10.08 15.1594 8.16C15.1594 7.84 14.8994 7.58 14.5594 7.58H12.2794C11.3794 7.58 10.5794 7.92 9.97937 8.46V7.04L10.5594 6.46C11.2194 5.78 11.5994 4.88 11.5994 3.94C11.5994 2.98 11.2194 2.1 10.5594 1.42L9.79938 0.68C9.57938 0.44 9.19937 0.44 8.97937 0.68L8.21938 1.42C7.53938 2.1 7.17937 2.98 7.17937 3.94C7.17937 4.88 7.53938 5.78 8.21938 6.46L8.79937 7.04V8.46C8.17937 7.92 7.37937 7.58 6.49937 7.58H4.19937C3.87937 7.58 3.61937 7.84 3.61937 8.16C3.61937 10.08 5.17937 11.64 7.07937 11.64H8.79937V13.88C8.09937 13.2 7.13937 12.76 6.07937 12.76H3.43937C3.11937 12.76 2.85938 13.02 2.85938 13.36C2.85938 15.5 4.59938 17.24 6.73938 17.24H8.79937V18.68C8.79937 19 9.05938 19.26 9.37937 19.26C9.69938 19.26 9.97937 19 9.97937 18.68V17.24H12.0194C14.1794 17.24 15.9194 15.5 15.9194 13.36C15.9194 13.02 15.6594 12.76 15.3394 12.76ZM12.2794 8.76H13.8994C13.6394 9.74 12.7394 10.46 11.6794 10.46H10.0394C10.2994 9.48 11.1994 8.76 12.2794 8.76ZM7.07937 10.46C6.01937 10.46 5.11937 9.74 4.85937 8.76H6.49937C7.55937 8.76 8.45937 9.48 8.71937 10.46H7.07937ZM6.73938 16.08C5.43938 16.08 4.35937 15.16 4.07937 13.94H6.07937C7.37937 13.94 8.45937 14.86 8.73938 16.08H6.73938ZM9.37937 5.88C9.19938 5.88 8.33937 5.08 8.33937 3.94C8.33937 2.84 8.99938 2.3 9.37937 1.92C9.75938 2.28 10.4194 2.84 10.4194 3.94C10.4194 5.06 9.57938 5.88 9.37937 5.88ZM12.0194 16.08H10.0394C10.2994 14.86 11.3994 13.94 12.6994 13.94H14.6794C14.4194 15.16 13.3194 16.08 12.0194 16.08Z" fill="black"/>
</g>
</g>
</g>
<defs>
<clipPath id="clip0_6314_4241">
<rect width="20" height="20" fill="white" transform="translate(0 0.5)"/>
</clipPath>
<clipPath id="clip1_6314_4241">
<rect width="20" height="20" fill="white" transform="translate(0 0.5)"/>
</clipPath>
<clipPath id="clip2_6314_4241">
<rect width="20" height="20" fill="white" transform="translate(0 0.5)"/>
</clipPath>
</defs>
</svg>
