<svg width="154" height="39" viewBox="0 0 154 39" fill="none" xmlns="http://www.w3.org/2000/svg">
<path d="M22.3595 38.6274C31.1723 38.6274 38.3166 31.4831 38.3166 22.6703V11.0633C38.3166 7.55192 35.4701 4.70541 31.9587 4.70541H12.7603C9.24884 4.70541 6.40234 7.55192 6.40234 11.0633V22.6702C6.40234 31.4831 13.5466 38.6274 22.3595 38.6274Z" fill="#634C9F"/>
<path d="M15.0287 23.5561C15.3612 25.0521 16.3586 27.0467 17.5222 27.3792C24.2057 29.6578 31.3059 29.5767 38.3151 29.6726V11.0633C38.3151 7.55191 35.4686 4.70541 31.9571 4.70541H12.7587C10.8622 4.70541 9.16086 5.53672 7.99609 6.85359C13.5001 10.2033 13.3089 17.6146 15.0287 23.5561Z" fill="#FACC15"/>
<path d="M36.7976 30.5977C36.6699 30.5977 36.5415 30.5926 36.4123 30.5821L20.0381 29.2454C17.5265 29.0403 15.4061 27.2658 14.7617 24.8299L11.5694 12.7637C11.0034 10.6182 10.4179 8.39986 7.9167 7.7278L0.79662 6.26399C0.257208 6.15311 -0.090377 5.62584 0.0206638 5.08626C0.131538 4.54668 0.659649 4.19926 1.1984 4.31013L8.39926 5.79207C12.0463 6.75187 12.8854 9.93249 13.4982 12.2549L13.5391 12.4101L16.6901 24.3198C17.1188 25.9403 18.5294 27.1207 20.2003 27.2573L36.5747 28.594C37.8766 28.7004 39.0729 27.8636 39.4202 26.6049L42.4368 15.6702L21.5278 13.9526C21.0755 13.9158 20.6488 14.0925 20.3559 14.4385C20.063 14.7845 19.9588 15.2349 20.07 15.6744L21.0032 19.3651C21.3117 20.5849 22.36 21.4892 23.612 21.6154L33.4695 22.6088C33.9729 22.6595 34.4327 22.3598 34.5906 21.8805C34.6927 21.57 34.6486 21.235 34.4694 20.9616C34.2901 20.6882 34.0005 20.5139 33.6748 20.4839L25.3966 19.7182C24.8483 19.6675 24.4448 19.1818 24.4955 18.6332C24.5462 18.0848 25.0293 17.6811 25.5805 17.7319L33.8587 18.4976C34.7927 18.584 35.6234 19.0836 36.1377 19.8682C36.6518 20.6526 36.7785 21.6137 36.4851 22.5045C36.0321 23.8797 34.7081 24.7388 33.2696 24.5934L23.412 23.6C21.328 23.39 19.5828 21.8847 19.0693 19.8542L18.1361 16.1634C17.865 15.0917 18.1193 13.9933 18.8336 13.1497C19.5479 12.3059 20.5893 11.8745 21.6911 11.9645L45 13.8793L41.3431 27.1353C40.7758 29.1914 38.9001 30.5976 36.7976 30.5977Z" fill="#634C9F"/>
<path d="M22.3716 33.0547C22.3716 34.5543 21.156 35.7699 19.6564 35.7699C18.157 35.7699 16.9414 34.5543 16.9414 33.0547C16.9414 31.5552 18.157 30.3397 19.6564 30.3397C21.156 30.3397 22.3716 31.5552 22.3716 33.0547Z" fill="#DC2626"/>
<path d="M35.8666 33.8801C35.8666 34.7862 35.1322 35.5206 34.2263 35.5206C33.3203 35.5206 32.5859 34.7862 32.5859 33.8801C32.5859 32.9741 33.3203 32.2397 34.2263 32.2397C35.1322 32.2397 35.8666 32.9741 35.8666 33.8801Z" fill="#DC2626"/>
<path d="M19.5192 8.92796C19.5192 10.2438 18.4525 11.3105 17.1366 11.3105C15.8208 11.3105 14.7539 10.2438 14.7539 8.92796C14.7539 7.61209 15.8208 6.54523 17.1366 6.54523C18.4525 6.54523 19.5192 7.61209 19.5192 8.92796Z" fill="#F25321"/>
<path d="M23.9375 3.22066C23.9375 4.99948 22.4956 6.44135 20.7168 6.44135C18.9381 6.44135 17.4961 4.99948 17.4961 3.22066C17.4961 1.44202 18.9381 -1.81198e-05 20.7168 -1.81198e-05C22.4956 -1.81198e-05 23.9375 1.44202 23.9375 3.22066Z" fill="#634C9F"/>
<path d="M23.1557 8.13371C23.1557 8.7559 22.6514 9.26041 22.029 9.26041C21.4068 9.26041 20.9023 8.7559 20.9023 8.13371C20.9023 7.51151 21.4068 7.00701 22.029 7.00701C22.6514 7.00701 23.1557 7.51151 23.1557 8.13371Z" fill="#634C9F"/>
<path d="M30.1459 4.85533C30.1459 6.29355 28.9798 7.45947 27.5416 7.45947C26.1033 7.45947 24.9375 6.29355 24.9375 4.85533C24.9375 3.41696 26.1033 2.25103 27.5416 2.25103C28.9798 2.25103 30.1459 3.41696 30.1459 4.85533Z" fill="#F25321"/>
<path d="M32.649 9.74515C32.649 10.9157 31.7 11.8646 30.5296 11.8646C29.359 11.8646 28.4102 10.9157 28.4102 9.74515C28.4102 8.57473 29.359 7.62573 30.5296 7.62573C31.7 7.62573 32.649 8.57473 32.649 9.74515Z" fill="#F25321"/>
<path d="M41.6451 10.6734C41.6451 11.844 40.6961 12.7928 39.5257 12.7928C38.3551 12.7928 37.4062 11.844 37.4062 10.6734C37.4062 9.50295 38.3551 8.55395 39.5257 8.55395C40.6961 8.55395 41.6451 9.50295 41.6451 10.6734Z" fill="#634C9F"/>
<path d="M26.9118 10.1192C26.9118 10.8996 26.2793 11.5321 25.4989 11.5321C24.7186 11.5321 24.0859 10.8996 24.0859 10.1192C24.0859 9.33888 24.7186 8.70622 25.4989 8.70622C26.2793 8.70622 26.9118 9.33888 26.9118 10.1192Z" fill="#634C9F"/>
<path d="M35.4721 4.99384C35.4721 5.97309 34.6782 6.767 33.6989 6.767C32.7199 6.767 31.9258 5.97309 31.9258 4.99384C31.9258 4.01458 32.7199 3.22067 33.6989 3.22067C34.6782 3.22067 35.4721 4.01458 35.4721 4.99384Z" fill="#634C9F"/>
<path d="M36.2204 10.6734C36.2204 11.4536 35.5879 12.0863 34.8075 12.0863C34.0272 12.0863 33.3945 11.4536 33.3945 10.6734C33.3945 9.89308 34.0272 9.26042 34.8075 9.26042C35.5879 9.26042 36.2204 9.89308 36.2204 10.6734Z" fill="#634C9F"/>
<path d="M37.8591 7.45948C37.8591 8.11742 37.3257 8.65085 36.6678 8.65085C36.0098 8.65085 35.4766 8.11742 35.4766 7.45948C35.4766 6.80155 36.0098 6.26829 36.6678 6.26829C37.3257 6.26829 37.8591 6.80155 37.8591 7.45948Z" fill="#F25321"/>
<path d="M63.5057 7.54545H67.1534V19.7159C67.1534 20.8409 66.9006 21.8182 66.3949 22.6477C65.8949 23.4773 65.1989 24.1165 64.3068 24.5653C63.4148 25.0142 62.3778 25.2386 61.196 25.2386C60.1449 25.2386 59.1903 25.054 58.3324 24.6847C57.4801 24.3097 56.804 23.7415 56.304 22.9801C55.804 22.2131 55.5568 21.25 55.5625 20.0909H59.2358C59.2472 20.5511 59.3409 20.946 59.517 21.2756C59.6989 21.5994 59.946 21.8494 60.2585 22.0256C60.5767 22.196 60.9517 22.2812 61.3835 22.2812C61.8381 22.2812 62.2216 22.1847 62.5341 21.9915C62.8523 21.7926 63.0938 21.5028 63.2585 21.1222C63.4233 20.7415 63.5057 20.2727 63.5057 19.7159V7.54545ZM70.1364 25V11.9091H73.767V25H70.1364ZM71.9602 10.2216C71.4205 10.2216 70.9574 10.0426 70.571 9.68466C70.1903 9.32102 70 8.88636 70 8.38068C70 7.88068 70.1903 7.4517 70.571 7.09375C70.9574 6.73011 71.4205 6.54829 71.9602 6.54829C72.5 6.54829 72.9602 6.73011 73.3409 7.09375C73.7273 7.4517 73.9205 7.88068 73.9205 8.38068C73.9205 8.88636 73.7273 9.32102 73.3409 9.68466C72.9602 10.0426 72.5 10.2216 71.9602 10.2216ZM80.3061 17.4318V25H76.6754V11.9091H80.1357V14.2188H80.2891C80.5788 13.4574 81.0646 12.8551 81.7464 12.4119C82.4283 11.9631 83.255 11.7386 84.2266 11.7386C85.1357 11.7386 85.9283 11.9375 86.6044 12.3352C87.2805 12.733 87.8061 13.3011 88.1811 14.0398C88.5561 14.7727 88.7436 15.6477 88.7436 16.6648V25H85.1129V17.3125C85.1186 16.5114 84.9141 15.8864 84.4993 15.4375C84.0845 14.983 83.5135 14.7557 82.7862 14.7557C82.2976 14.7557 81.8658 14.8608 81.4908 15.071C81.1214 15.2812 80.8317 15.5881 80.6214 15.9915C80.4169 16.3892 80.3118 16.8693 80.3061 17.4318ZM101.142 12.5653C101.074 11.8778 100.781 11.3437 100.264 10.9631C99.7472 10.5824 99.0455 10.392 98.1591 10.392C97.5568 10.392 97.0483 10.4773 96.6335 10.6477C96.2188 10.8125 95.9006 11.0426 95.679 11.3381C95.4631 11.6335 95.3551 11.9688 95.3551 12.3438C95.3438 12.6562 95.4091 12.929 95.5511 13.1619C95.6989 13.3949 95.9006 13.5966 96.1562 13.767C96.4119 13.9318 96.7074 14.0767 97.0426 14.2017C97.3778 14.321 97.7358 14.4233 98.1165 14.5085L99.6847 14.8835C100.446 15.054 101.145 15.2812 101.781 15.5653C102.418 15.8494 102.969 16.1989 103.435 16.6136C103.901 17.0284 104.261 17.517 104.517 18.0795C104.778 18.642 104.912 19.2869 104.918 20.0142C104.912 21.0824 104.639 22.0085 104.099 22.7926C103.565 23.571 102.793 24.1761 101.781 24.608C100.776 25.0341 99.5625 25.2472 98.142 25.2472C96.733 25.2472 95.5057 25.0312 94.4602 24.5994C93.4205 24.1676 92.608 23.5284 92.0227 22.6818C91.4432 21.8295 91.1392 20.7756 91.1108 19.5199H94.6818C94.7216 20.1051 94.8892 20.5937 95.1847 20.9858C95.4858 21.3722 95.8864 21.6648 96.3864 21.8636C96.892 22.0568 97.4631 22.1534 98.0994 22.1534C98.7244 22.1534 99.267 22.0625 99.7273 21.8807C100.193 21.6989 100.554 21.446 100.81 21.1222C101.065 20.7983 101.193 20.4261 101.193 20.0057C101.193 19.6136 101.077 19.2841 100.844 19.017C100.616 18.75 100.281 18.5227 99.8381 18.3352C99.4006 18.1477 98.8636 17.9773 98.2273 17.8239L96.3267 17.3466C94.8551 16.9886 93.6932 16.429 92.8409 15.6676C91.9886 14.9062 91.5653 13.8807 91.571 12.5909C91.5653 11.5341 91.8466 10.6108 92.4148 9.82102C92.9886 9.03125 93.7756 8.41477 94.7756 7.97159C95.7756 7.52841 96.9119 7.30682 98.1847 7.30682C99.4801 7.30682 100.611 7.52841 101.577 7.97159C102.548 8.41477 103.304 9.03125 103.844 9.82102C104.384 10.6108 104.662 11.5256 104.679 12.5653H101.142ZM114.295 11.9091V14.6364H106.411V11.9091H114.295ZM108.201 8.77273H111.832V20.9773C111.832 21.3125 111.883 21.5739 111.985 21.7614C112.087 21.9432 112.229 22.071 112.411 22.1449C112.599 22.2187 112.815 22.2557 113.059 22.2557C113.229 22.2557 113.4 22.2415 113.57 22.2131C113.741 22.179 113.871 22.1534 113.962 22.1364L114.533 24.8381C114.352 24.8949 114.096 24.9602 113.766 25.0341C113.437 25.1136 113.036 25.1619 112.565 25.179C111.69 25.2131 110.923 25.0966 110.263 24.8295C109.61 24.5625 109.102 24.1477 108.738 23.5852C108.374 23.0227 108.195 22.3125 108.201 21.4545V8.77273ZM122.434 25.2557C121.11 25.2557 119.965 24.9744 118.999 24.4119C118.039 23.8437 117.298 23.054 116.775 22.0426C116.252 21.0256 115.991 19.8466 115.991 18.5057C115.991 17.1534 116.252 15.9716 116.775 14.9602C117.298 13.9432 118.039 13.1534 118.999 12.5909C119.965 12.0227 121.11 11.7386 122.434 11.7386C123.758 11.7386 124.9 12.0227 125.86 12.5909C126.826 13.1534 127.57 13.9432 128.093 14.9602C128.616 15.9716 128.877 17.1534 128.877 18.5057C128.877 19.8466 128.616 21.0256 128.093 22.0426C127.57 23.054 126.826 23.8437 125.86 24.4119C124.9 24.9744 123.758 25.2557 122.434 25.2557ZM122.451 22.4432C123.053 22.4432 123.556 22.2727 123.96 21.9318C124.363 21.5852 124.667 21.1136 124.871 20.517C125.082 19.9205 125.187 19.2415 125.187 18.4801C125.187 17.7188 125.082 17.0398 124.871 16.4432C124.667 15.8466 124.363 15.375 123.96 15.0284C123.556 14.6818 123.053 14.5085 122.451 14.5085C121.843 14.5085 121.332 14.6818 120.917 15.0284C120.508 15.375 120.198 15.8466 119.988 16.4432C119.783 17.0398 119.681 17.7188 119.681 18.4801C119.681 19.2415 119.783 19.9205 119.988 20.517C120.198 21.1136 120.508 21.5852 120.917 21.9318C121.332 22.2727 121.843 22.4432 122.451 22.4432ZM131.238 25V11.9091H134.758V14.1932H134.894C135.133 13.3807 135.533 12.767 136.096 12.3523C136.658 11.9318 137.306 11.7216 138.039 11.7216C138.221 11.7216 138.417 11.733 138.627 11.7557C138.837 11.7784 139.022 11.8097 139.181 11.8494V15.071C139.011 15.0199 138.775 14.9744 138.474 14.9347C138.173 14.8949 137.897 14.875 137.647 14.875C137.113 14.875 136.636 14.9915 136.215 15.2244C135.8 15.4517 135.471 15.7699 135.227 16.179C134.988 16.5881 134.869 17.0597 134.869 17.5938V25H131.238ZM146.415 25.2557C145.068 25.2557 143.909 24.983 142.938 24.4375C141.972 23.8864 141.227 23.108 140.705 22.1023C140.182 21.0909 139.92 19.8949 139.92 18.5142C139.92 17.1676 140.182 15.9858 140.705 14.9688C141.227 13.9517 141.963 13.1591 142.912 12.5909C143.866 12.0227 144.986 11.7386 146.27 11.7386C147.134 11.7386 147.938 11.8778 148.682 12.1562C149.432 12.429 150.085 12.8409 150.642 13.392C151.205 13.9432 151.642 14.6364 151.955 15.4716C152.267 16.3011 152.423 17.2727 152.423 18.3864V19.3835H141.369V17.1335H149.006C149.006 16.6108 148.892 16.1477 148.665 15.7443C148.438 15.3409 148.122 15.0256 147.719 14.7983C147.321 14.5653 146.858 14.4489 146.33 14.4489C145.778 14.4489 145.29 14.5767 144.864 14.8324C144.443 15.0824 144.114 15.4205 143.875 15.8466C143.636 16.267 143.514 16.7358 143.509 17.2528V19.392C143.509 20.0398 143.628 20.5994 143.866 21.071C144.111 21.5426 144.455 21.9062 144.898 22.1619C145.341 22.4176 145.866 22.5455 146.474 22.5455C146.878 22.5455 147.247 22.4886 147.582 22.375C147.918 22.2614 148.205 22.0909 148.443 21.8636C148.682 21.6364 148.864 21.358 148.989 21.0284L152.347 21.25C152.176 22.0568 151.827 22.7614 151.298 23.3636C150.776 23.9602 150.099 24.4261 149.27 24.7614C148.446 25.0909 147.494 25.2557 146.415 25.2557Z" fill="black"/>
<path d="M136.148 8.07457C135.757 8.07457 135.42 7.99171 135.138 7.82599C134.858 7.65862 134.643 7.42661 134.492 7.12997C134.343 6.83333 134.268 6.49195 134.268 6.10582C134.268 5.71473 134.344 5.37169 134.495 5.0767C134.647 4.78007 134.863 4.54889 135.143 4.38317C135.424 4.21579 135.757 4.1321 136.143 4.1321C136.476 4.1321 136.768 4.19259 137.018 4.31357C137.268 4.43454 137.466 4.6044 137.612 4.82315C137.758 5.0419 137.838 5.29877 137.853 5.59375H136.854C136.826 5.40317 136.751 5.24988 136.63 5.13388C136.511 5.01622 136.354 4.95739 136.16 4.95739C135.996 4.95739 135.853 5.00213 135.73 5.09162C135.609 5.17945 135.515 5.30788 135.447 5.47692C135.379 5.64595 135.345 5.85062 135.345 6.09091C135.345 6.33452 135.378 6.54167 135.444 6.71236C135.512 6.88305 135.607 7.01314 135.73 7.10263C135.853 7.19212 135.996 7.23686 136.16 7.23686C136.281 7.23686 136.39 7.212 136.486 7.16229C136.584 7.11257 136.664 7.04048 136.727 6.94602C136.792 6.84991 136.834 6.73473 136.854 6.6005H137.853C137.836 6.89216 137.757 7.14903 137.614 7.37109C137.473 7.5915 137.279 7.76385 137.03 7.88814C136.782 8.01243 136.487 8.07457 136.148 8.07457ZM140.256 8.07457C139.87 8.07457 139.536 7.99254 139.254 7.82848C138.974 7.66276 138.758 7.43241 138.606 7.13743C138.453 6.84079 138.377 6.49692 138.377 6.10582C138.377 5.71141 138.453 5.36671 138.606 5.07173C138.758 4.77509 138.974 4.54474 139.254 4.38068C139.536 4.21496 139.87 4.1321 140.256 4.1321C140.642 4.1321 140.975 4.21496 141.255 4.38068C141.537 4.54474 141.754 4.77509 141.907 5.07173C142.059 5.36671 142.135 5.71141 142.135 6.10582C142.135 6.49692 142.059 6.84079 141.907 7.13743C141.754 7.43241 141.537 7.66276 141.255 7.82848C140.975 7.99254 140.642 8.07457 140.256 8.07457ZM140.261 7.25426C140.437 7.25426 140.583 7.20455 140.701 7.10511C140.819 7.00402 140.907 6.86648 140.967 6.69247C141.028 6.51847 141.059 6.32043 141.059 6.09837C141.059 5.8763 141.028 5.67827 140.967 5.50426C140.907 5.33026 140.819 5.19271 140.701 5.09162C140.583 4.99053 140.437 4.93999 140.261 4.93999C140.084 4.93999 139.935 4.99053 139.814 5.09162C139.694 5.19271 139.604 5.33026 139.543 5.50426C139.483 5.67827 139.453 5.8763 139.453 6.09837C139.453 6.32043 139.483 6.51847 139.543 6.69247C139.604 6.86648 139.694 7.00402 139.814 7.10511C139.935 7.20455 140.084 7.25426 140.261 7.25426ZM142.824 8V4.18182H143.833V4.85547H143.878C143.957 4.63175 144.09 4.45526 144.276 4.32599C144.461 4.19673 144.683 4.1321 144.942 4.1321C145.204 4.1321 145.427 4.19756 145.611 4.32848C145.794 4.45774 145.917 4.6334 145.978 4.85547H146.018C146.096 4.63672 146.237 4.46188 146.441 4.33097C146.646 4.19839 146.889 4.1321 147.169 4.1321C147.525 4.1321 147.815 4.24562 148.037 4.47266C148.26 4.69803 148.372 5.01787 148.372 5.43217V8H147.316V5.64098C147.316 5.42886 147.259 5.26977 147.147 5.16371C147.034 5.05765 146.893 5.00462 146.724 5.00462C146.532 5.00462 146.382 5.06593 146.274 5.18857C146.167 5.30954 146.113 5.46946 146.113 5.66832V8H145.086V5.61861C145.086 5.43134 145.032 5.2822 144.924 5.17116C144.818 5.06013 144.678 5.00462 144.504 5.00462C144.387 5.00462 144.281 5.03445 144.186 5.09411C144.093 5.15211 144.02 5.23414 143.965 5.3402C143.91 5.4446 143.883 5.56723 143.883 5.7081V8H142.824Z" fill="#634C9F"/>
</svg>
