<svg width="17" height="17" viewBox="0 0 17 17" fill="none" xmlns="http://www.w3.org/2000/svg">
<path d="M3.03766 13.2949H0.322656V4.53492H3.03766V13.2949ZM1.67266 3.33492C1.39266 3.33492 1.13016 3.26242 0.885156 3.11742C0.640156 2.97242 0.447656 2.77992 0.307656 2.53992C0.167656 2.29992 0.0976562 2.03492 0.0976562 1.74492C0.0976562 1.45492 0.167656 1.18992 0.307656 0.949923C0.447656 0.709923 0.637656 0.519922 0.877656 0.379922C1.11766 0.239922 1.38266 0.169922 1.67266 0.169922C1.96266 0.169922 2.22766 0.239922 2.46766 0.379922C2.70766 0.519922 2.89766 0.709923 3.03766 0.949923C3.17766 1.18992 3.24766 1.45492 3.24766 1.74492C3.24766 2.03492 3.17766 2.29992 3.03766 2.53992C2.89766 2.77992 2.70516 2.97242 2.46016 3.11742C2.21516 3.26242 1.95266 3.33492 1.67266 3.33492ZM13.2227 13.2949H10.5077V9.03492C10.5077 8.57492 10.4877 8.22492 10.4477 7.98492C10.3877 7.59492 10.2627 7.29492 10.0727 7.08492C9.85266 6.83492 9.52766 6.70992 9.09766 6.70992C8.44766 6.70992 7.99766 6.93992 7.74766 7.39992C7.55766 7.74992 7.46266 8.26992 7.46266 8.95992V13.2949H4.74766V4.53492H7.35766V5.71992H7.38766C7.58766 5.33992 7.89766 5.01992 8.31766 4.75992C8.79766 4.45992 9.34766 4.30992 9.96766 4.30992C10.8377 4.30992 11.5277 4.49492 12.0377 4.86492C12.4877 5.19492 12.8027 5.68992 12.9827 6.34992C13.1427 6.89992 13.2227 7.60992 13.2227 8.47992V13.2949Z" fill="#0077B5"/>
</svg>
